<svg width="92" height="83" viewBox="0 0 92 83" fill="none" xmlns="http://www.w3.org/2000/svg">
<mask id="mask0_93_14819" style="mask-type:luminance" maskUnits="userSpaceOnUse" x="1" y="13" width="37" height="70">
<path d="M1.36914 13.0039H37.6722V82.5681H1.36914V13.0039Z" fill="white"/>
</mask>
<g mask="url(#mask0_93_14819)">
<path d="M36.1738 72.9989L36.2101 64.8415C36.2118 64.5346 35.98 64.2676 35.6547 64.2021C35.0856 64.0886 34.5164 63.9831 33.9456 63.884C35.7119 55.4308 30.5375 49.5513 25.5242 43.8589C24.4325 42.6201 23.3219 41.3572 22.2891 40.0687C20.5938 36.6574 20.2478 25.7058 20.2444 25.5747C20.1388 23.7747 19.5697 22.5518 18.5542 21.9428C17.9591 21.5847 17.3363 21.5191 16.8571 21.5447C16.1478 17.9496 13.7571 17.1487 12.6464 16.9744C12.6153 16.8817 12.5841 16.7858 12.5513 16.7011C11.4077 13.8925 9.15185 12.9765 7.53784 13.3121C6.31994 13.5663 5.52763 14.4487 5.34944 15.646C5.07438 15.6125 4.80451 15.6045 4.54674 15.6285C2.97768 15.7787 1.93105 16.9025 1.74422 18.6721C1.41726 25.8272 2.08502 37.535 2.38776 42.2348C2.4881 43.8141 2.88599 45.3376 3.56932 46.7634C4.28899 48.2645 5.29408 50.17 6.35627 52.1889C7.79386 54.9177 9.28161 57.7391 10.214 59.8444C10.7071 60.957 10.9839 62.5619 11.0946 63.8056C10.3438 63.9272 9.59131 64.0566 8.83703 64.2021C8.50834 64.2644 8.27479 64.533 8.27652 64.8415L8.31458 72.9989C7.44096 73.4497 6.88045 74.3081 6.88045 75.2705V81.7747C6.88045 82.1343 7.1953 82.4255 7.58454 82.4255C7.97378 82.4255 8.29036 82.1343 8.29036 81.7747V75.272C8.29036 74.7046 8.67268 74.2058 9.24014 74.0348C10.9424 73.52 14.8953 72.6568 22.2442 72.6568C29.5913 72.6568 33.5443 73.52 35.2465 74.0348C35.8156 74.2074 36.1962 74.7046 36.1962 75.272V81.7747C36.1962 82.1343 36.5128 82.4255 36.9021 82.4255C37.2913 82.4255 37.6062 82.1343 37.6062 81.7747V75.272C37.6062 74.3081 37.0456 73.4497 36.1738 72.9989ZM18.8379 25.629C18.8482 25.9823 19.0403 32.108 19.8983 36.7309C19.8274 36.6159 19.7513 36.5023 19.6821 36.3857C19.1493 35.5208 18.4538 34.9294 17.6823 34.656C17.6598 30.1593 17.1979 24.6603 17.0336 22.8443C17.2619 22.8443 17.5335 22.8827 17.786 23.0345C18.395 23.3991 18.7583 24.3038 18.8379 25.629ZM15.5734 22.36C15.5804 22.4303 16.2326 29.1602 16.2707 34.5154C15.7118 34.6001 15.1929 34.8463 14.7518 35.2251C14.4749 33.6633 14.2552 30.714 14.0702 28.2235C13.7985 24.5852 13.52 20.8573 13.0149 18.3972C13.9214 18.7233 15.2396 19.66 15.5734 22.36ZM7.84923 14.583C8.8889 14.364 10.3871 15.0833 11.2278 17.1487C11.9769 19.0877 12.3419 23.9889 12.6637 28.3129C13.0304 33.2381 13.2553 35.6807 13.7207 36.7006C13.6048 36.9819 13.5079 37.2553 13.4266 37.5255C11.5427 35.329 11.0721 29.8124 10.721 25.6498C10.5081 23.1369 10.3248 20.9661 9.90093 19.5737C9.31275 17.8297 8.05163 16.6228 6.71438 16.0313C6.75416 15.2576 7.1607 14.7269 7.84923 14.583ZM11.5184 59.3504C10.5687 57.2068 9.07233 54.3662 7.62433 51.6183C6.56733 49.6105 5.56915 47.7162 4.85986 46.2344C4.24401 44.9523 3.8859 43.5807 3.79422 42.1564C3.4932 37.4759 2.8289 25.8224 3.15068 18.7632C3.23371 17.9831 3.56932 17.0304 4.69206 16.9233C5.02421 16.8929 5.39096 16.9409 5.7629 17.0608C5.77847 17.0671 5.79231 17.0768 5.80961 17.0815C6.9064 17.454 8.04817 18.4531 8.54985 19.9429C8.93045 21.1946 9.119 23.4071 9.31625 25.7505C9.76604 31.0625 10.2781 37.0411 13.1377 39.0777C12.9197 42.0462 14.6895 44.4008 16.2983 46.5284C17.2913 47.8409 18.2289 49.083 18.575 50.317C19.0974 52.1506 18.5698 54.6092 18.5646 54.6347C18.4885 54.9864 18.7341 55.3301 19.1164 55.4021C19.5005 55.4756 19.869 55.2454 19.9468 54.8937C19.971 54.7802 20.5454 52.1154 19.9382 49.9894C19.5316 48.5299 18.523 47.195 17.4539 45.7819C15.5216 43.2259 13.5235 40.5851 15.096 37.0091C15.1012 36.9995 15.1063 36.9899 15.1115 36.9803C15.1202 36.9659 15.1254 36.9531 15.1341 36.9388C15.4783 36.245 16.0319 35.8134 16.6287 35.7814C17.2861 35.7478 17.9487 36.2019 18.4521 37.0219C19.2133 38.2975 20.1163 39.5348 21.0816 40.7449C21.118 40.8137 21.1525 40.8856 21.1889 40.9479C21.2495 41.0502 21.3377 41.1286 21.4363 41.1861C22.4051 42.3739 23.4257 43.5376 24.4342 44.6805C29.4632 50.3906 34.2154 55.7937 32.5582 63.657C25.9844 62.6563 19.2618 62.6339 12.4907 63.593C12.3609 62.2599 12.0564 60.5638 11.5184 59.3504ZM9.72278 72.5433L9.68993 65.3706C18.1823 63.7992 26.6244 63.7976 34.7984 65.3658L34.7656 72.5433C32.4232 71.9518 28.5049 71.3524 22.2442 71.3524C15.9835 71.3524 12.0634 71.9518 9.72278 72.5433Z" fill="#B500BA"/>
</g>
<mask id="mask1_93_14819" style="mask-type:luminance" maskUnits="userSpaceOnUse" x="54" y="13" width="37" height="70">
<path d="M54.498 13.0039H90.6714V82.5681H54.498V13.0039Z" fill="white"/>
</mask>
<g mask="url(#mask1_93_14819)">
<path d="M90.3837 18.6357C90.1988 16.9013 89.152 15.7775 87.5826 15.6289C87.3248 15.6049 87.0568 15.6129 86.7819 15.6464C86.6018 14.4491 85.8097 13.5667 84.5936 13.3125C82.9791 12.9753 80.7239 13.8944 79.5746 16.7126C79.542 16.7942 79.5125 16.8869 79.483 16.9764C78.3725 17.1539 75.987 17.9579 75.2743 21.5451C74.7951 21.5195 74.1705 21.5834 73.5755 21.9431C72.5599 22.5538 71.9908 23.7751 71.8853 25.5926C71.8818 25.7061 71.5358 36.6594 69.8405 40.0691C68.8077 41.356 67.6971 42.6188 66.6054 43.8593C61.5921 49.5502 56.4177 55.4312 58.1857 63.8827C57.6132 63.9835 57.044 64.089 56.4749 64.2024C56.1496 64.2696 55.9178 64.535 55.9196 64.8419L55.9576 72.9993C55.084 73.4501 54.5234 74.3085 54.5234 75.2724V81.7755C54.5234 82.135 54.8383 82.4263 55.2276 82.4263C55.6168 82.4263 55.9334 82.135 55.9334 81.7755V75.2724C55.9334 74.7049 56.3157 74.2062 56.8831 74.0351C58.5854 73.5204 62.5383 72.6556 69.8871 72.6556C77.236 72.6556 81.1891 73.5204 82.8913 74.0351C83.459 74.2062 83.8411 74.7034 83.8411 75.2708V81.7755C83.8411 82.135 84.1579 82.4263 84.547 82.4263C84.936 82.4263 85.2505 82.135 85.2505 81.7755V75.2724C85.2505 74.3101 84.6906 73.4501 83.817 72.9993L83.855 64.8419C83.8566 64.5333 83.6213 64.2648 83.2944 64.2024C82.5403 64.057 81.7894 63.9291 81.0353 63.806C81.1472 62.5623 81.4244 60.9574 81.9175 59.8448C82.8494 57.7411 84.3357 54.9197 85.7732 52.1925C86.8371 50.1736 87.8427 48.2665 88.5618 46.7638C89.2452 45.338 89.6436 43.8145 89.7438 42.2351C90.0466 37.5354 90.7137 25.8276 90.3837 18.6357ZM84.2822 14.5834C84.971 14.7273 85.3771 15.2596 85.4152 16.0333C84.0795 16.6247 82.8152 17.8364 82.2235 19.5916C81.8065 20.9648 81.6216 23.1356 81.4104 25.6502C81.0578 29.8128 80.5872 35.331 78.7033 37.5274C78.6217 37.2572 78.5248 36.9823 78.4107 36.7025C78.8757 35.6843 79.1009 33.2401 79.4674 28.3133C79.7897 23.9892 80.1547 19.0881 80.8987 17.1603C81.7459 15.0822 83.2478 14.3628 84.2822 14.5834ZM79.1149 18.3943C78.6131 20.8481 78.3328 24.5823 78.0612 28.2238C77.8761 30.7176 77.6564 33.6717 77.383 35.2271C76.9419 34.8466 76.4229 34.6004 75.8607 34.5157C75.8988 29.1606 76.551 22.4307 76.5562 22.3748C76.8917 19.6588 78.2065 18.7188 79.1149 18.3943ZM73.2935 25.647C73.3713 24.3121 73.7312 23.4106 74.3332 23.0414C74.5926 22.8831 74.8677 22.8415 75.0978 22.8415C74.9351 24.6383 74.4715 30.1549 74.449 34.6612C73.6792 34.9378 72.9786 35.5244 72.4441 36.3941C72.3766 36.5075 72.3022 36.6178 72.233 36.7313C73.0893 32.1099 73.2831 25.9874 73.2935 25.647ZM82.4106 72.5437C80.0677 71.9522 76.1478 71.3528 69.8871 71.3528C63.6264 71.3528 59.7081 71.9522 57.3658 72.5437L57.3329 65.3662C65.5086 63.798 73.9508 63.7996 82.4432 65.371L82.4106 72.5437ZM88.3374 42.1584C88.2458 43.5811 87.887 44.9543 87.2735 46.2363C86.5622 47.7166 85.5643 49.6141 84.505 51.6234C83.0575 54.3698 81.5611 57.2088 80.6129 59.3525C80.0747 60.5658 79.7703 62.2603 79.6422 63.595C72.8713 62.6359 66.147 62.6567 59.5749 63.6589C57.9159 55.7941 62.6698 50.3926 67.6988 44.6825C68.7056 43.5396 69.728 42.3758 70.6951 41.1881C70.7954 41.1305 70.8819 41.0506 70.9424 40.9483C70.9788 40.886 71.0151 40.8156 71.0515 40.7485C72.015 39.5384 72.9163 38.3027 73.6758 37.0319C74.1844 36.2038 74.8417 35.7498 75.5026 35.7834C76.1219 35.8154 76.6945 36.2742 77.0302 36.9999C78.6079 40.587 76.6097 43.2294 74.6774 45.784C73.61 47.1971 72.6015 48.5302 72.195 49.9881C71.586 52.1174 72.1603 54.7822 72.1863 54.8957C72.2624 55.2474 72.6343 55.4775 73.0166 55.404C73.3989 55.3321 73.6446 54.9884 73.5668 54.6367C73.5616 54.6111 73.0357 52.1526 73.5581 50.3158C73.9024 49.0834 74.8417 47.8429 75.8347 46.5305C77.4419 44.4027 79.2096 42.0513 78.9922 39.0796C81.8531 37.0462 82.3671 31.0645 82.8152 25.7524C83.014 23.409 83.2012 21.1966 83.5763 19.9625C84.0834 18.4583 85.2265 17.456 86.3238 17.0819C86.3323 17.0787 86.3408 17.0755 86.3494 17.0723C86.7284 16.9461 87.1019 16.8933 87.4389 16.9253C88.5618 17.0324 88.8973 17.9835 88.9773 18.7285C89.3027 25.8244 88.6379 37.4762 88.3374 42.1584Z" fill="#B500BA"/>
</g>
<path d="M48.0178 36.1758H44.115C40.1015 36.1758 36.7057 39.0724 36.3856 42.7682L35.4964 53.0597C35.4808 53.2403 35.5465 53.4194 35.6797 53.5537C35.813 53.6863 36.0015 53.763 36.197 53.763H55.934C56.1313 53.763 56.3198 53.6863 56.453 53.5537C56.5863 53.4194 56.6538 53.2403 56.6381 53.0597L55.7472 42.7682C55.4272 39.0724 52.0313 36.1758 48.0178 36.1758ZM55.1711 52.4603H36.9617L37.7903 42.8738C38.0532 39.8476 40.8316 37.4786 44.115 37.4786H48.0178C51.3013 37.4786 54.0795 39.8476 54.3425 42.8738L55.1711 52.4603Z" fill="#B500BA"/>
<path d="M31.968 30.9665C33.8692 30.9665 35.7013 30.4949 37.3274 29.6046C38.5003 33.0334 41.9723 35.5271 46.0653 35.5271C48.1984 35.5271 50.1602 34.843 51.7188 33.7096C53.499 36.4559 56.6562 38.1312 60.1628 38.1312C65.6052 38.1312 70.0322 34.0421 70.0322 29.013C70.0322 23.984 65.6052 19.8933 60.1628 19.8933C57.7391 19.8933 55.3898 20.7406 53.5855 22.2336C51.9299 20.0356 49.1776 18.5905 46.0653 18.5905C44.7402 18.5905 43.4825 18.8575 42.346 19.3274C41.3997 14.7619 37.1042 11.4258 31.968 11.4258C26.1363 11.4258 21.3945 15.809 21.3945 21.1961C21.3945 26.5832 26.1363 30.9665 31.968 30.9665ZM60.1628 21.1961C64.8285 21.1961 68.6222 24.7033 68.6222 29.013C68.6222 33.3228 64.8285 36.8283 60.1628 36.8283C57.0592 36.8283 54.274 35.297 52.7793 32.8032C53.4073 32.1765 53.9332 31.462 54.3345 30.6835C55.1978 31.9128 56.8205 33.3675 59.841 34.803C59.9413 34.851 60.052 34.875 60.1628 34.875C60.2735 34.875 60.3842 34.851 60.4863 34.803C66.7522 31.8233 67.067 28.7365 66.9113 27.5487C66.7193 26.0717 65.5845 24.8952 64.0223 24.5499C62.6383 24.2462 61.2215 24.6778 60.1645 25.6961C59.3012 24.8616 58.2027 24.4108 57.0488 24.4571C56.2946 24.4843 55.5767 24.7258 54.9764 25.1222C54.8224 24.518 54.5975 23.9408 54.312 23.3941C55.8984 21.9794 57.9536 21.1961 60.1628 21.1961ZM55.2116 26.7303C55.6337 26.1548 56.3396 25.7855 57.1025 25.7584C58.0522 25.7248 58.9311 26.2012 59.578 27.0964C59.8393 27.4576 60.488 27.4576 60.7492 27.0964C61.5034 26.0542 62.6038 25.5777 63.6953 25.8159C64.678 26.0333 65.3907 26.775 65.5135 27.7055C65.7557 29.5614 63.7628 31.7098 60.1645 33.489C57.3637 32.1063 55.5472 30.5109 54.9885 28.9587C55.1407 28.3464 55.2289 27.7135 55.2289 27.058C55.2289 26.9478 55.2151 26.8406 55.2116 26.7303ZM53.819 27.058C53.819 31.0097 50.3401 34.2244 46.0653 34.2244C41.7906 34.2244 38.3117 31.0097 38.3117 27.058C38.3117 23.108 41.7906 19.8933 46.0653 19.8933C50.3401 19.8933 53.819 23.108 53.819 27.058ZM31.968 12.7286C36.5731 12.7286 40.3894 15.8266 41.026 19.9941C38.5435 21.5111 36.9018 24.1087 36.9018 27.058C36.9018 27.4656 36.9433 27.8621 37.0039 28.2522C35.4988 29.1745 33.7688 29.6636 31.968 29.6636C26.9148 29.6636 22.8044 25.8655 22.8044 21.1961C22.8044 16.5284 26.9148 12.7286 31.968 12.7286Z" fill="#B500BA"/>
<path d="M29.3142 23.7176C29.3142 23.3579 28.9994 23.0654 28.6101 23.0654C28.2208 23.0654 27.9043 23.3579 27.9043 23.7176C27.9043 25.3706 29.3575 26.747 31.2639 27.0236V27.6582C31.2639 28.0179 31.5789 28.3105 31.9681 28.3105C32.3573 28.3105 32.6722 28.0179 32.6722 27.6582V27.0236C34.577 26.747 36.032 25.3706 36.032 23.7176C36.032 21.7881 34.8122 20.6115 32.6722 20.4005V16.324C33.7933 16.5654 34.622 17.3551 34.622 18.2999C34.622 18.6596 34.9368 18.9506 35.3261 18.9506C35.7153 18.9506 36.032 18.6596 36.032 18.2999C36.032 16.6453 34.5787 15.2705 32.6722 14.9924V14.3593C32.6722 13.9996 32.3573 13.707 31.9681 13.707C31.5789 13.707 31.2639 13.9996 31.2639 14.3593V14.9924C29.3593 15.2705 27.9043 16.6453 27.9043 18.2999C27.9043 20.0456 29.2814 21.358 31.2639 21.6122V25.6919C30.1429 25.4505 29.3142 24.6624 29.3142 23.7176ZM34.6203 23.7176C34.6203 24.6624 33.7916 25.4505 32.6722 25.6919V21.7066C34.6134 21.9591 34.6203 23.2588 34.6203 23.7176ZM29.3142 18.2999C29.3142 17.3551 30.1429 16.5654 31.2639 16.324V20.2822C30.2311 20.0856 29.3142 19.4525 29.3142 18.2999Z" fill="#B500BA"/>
<mask id="mask2_93_14819" style="mask-type:luminance" maskUnits="userSpaceOnUse" x="45" y="0" width="22" height="19">
<path d="M45.6445 0.351562H66.0165V18.7317H45.6445V0.351562Z" fill="white"/>
</mask>
<g mask="url(#mask2_93_14819)">
<path d="M55.9379 18.5894C61.3804 18.5894 65.8073 14.4988 65.8073 9.47127C65.8073 4.44226 61.3804 0.351562 55.9379 0.351562C50.4973 0.351562 46.0703 4.44226 46.0703 9.47127C46.0703 14.4988 50.4973 18.5894 55.9379 18.5894ZM55.9379 1.65438C60.6036 1.65438 64.3974 5.1616 64.3974 9.47127C64.3974 13.781 60.6036 17.2867 55.9379 17.2867C51.274 17.2867 47.4803 13.781 47.4803 9.47127C47.4803 5.1616 51.2757 1.65438 55.9379 1.65438Z" fill="#B500BA"/>
</g>
<path d="M53.1176 12.0812V14.6869C53.1176 15.0466 53.4324 15.3375 53.8217 15.3375H58.0516C58.4409 15.3375 58.7557 15.0466 58.7557 14.6869V12.0812H61.5757C61.9649 12.0812 62.2815 11.7902 62.2815 11.4289V7.52031C62.2815 7.16061 61.9649 6.86967 61.5757 6.86967H58.7557V4.26392C58.7557 3.90423 58.4409 3.61328 58.0516 3.61328H53.8217C53.4324 3.61328 53.1176 3.90423 53.1176 4.26392V6.86967H50.2977C49.9083 6.86967 49.5918 7.16061 49.5918 7.52031V11.4289C49.5918 11.7902 49.9083 12.0812 50.2977 12.0812H53.1176ZM51.0017 8.17254H53.8217C54.2109 8.17254 54.5276 7.8816 54.5276 7.52031V4.91616H57.3458V7.52031C57.3458 7.8816 57.6623 8.17254 58.0516 8.17254H60.8715V10.7783H58.0516C57.6623 10.7783 57.3458 11.0693 57.3458 11.4289V14.0347H54.5276V11.4289C54.5276 11.0693 54.2109 10.7783 53.8217 10.7783H51.0017V8.17254Z" fill="#B500BA"/>
</svg>
