<svg width="68" height="75" viewBox="0 0 68 75" fill="none" xmlns="http://www.w3.org/2000/svg">
<path fill-rule="evenodd" clip-rule="evenodd" d="M12.491 15.4504C12.2925 15.4504 12.094 15.3636 11.8955 15.2329L5.68494 9.76178C5.33679 9.50152 5.33679 9.02366 5.68494 8.7634C6.03309 8.45907 6.52941 8.45907 6.87756 8.7634L13.0881 14.1905C13.4348 14.4948 13.4348 14.9299 13.0881 15.2329C12.9385 15.3636 12.6896 15.4504 12.491 15.4504Z" fill="#473DC6"/>
<path fill-rule="evenodd" clip-rule="evenodd" d="M6.28183 15.4504C6.0833 15.4504 5.83585 15.3636 5.68624 15.2329C5.38844 14.9299 5.38844 14.4948 5.68624 14.1905L11.8968 8.7634C12.2449 8.45907 12.7902 8.45907 13.0894 8.7634C13.4361 9.02366 13.4361 9.50152 13.0894 9.76178L6.87885 15.2329C6.68032 15.3636 6.48179 15.4504 6.28183 15.4504Z" fill="#473DC6"/>
<path fill-rule="evenodd" clip-rule="evenodd" d="M39.8165 24.7015C39.369 24.7015 38.9705 24.3972 38.9705 23.9634V19.7937C38.9705 18.491 37.8283 17.4059 36.4371 17.4059C35.046 17.4059 33.9037 18.491 33.9037 19.7937V23.9634C33.9037 24.3972 33.5556 24.7015 33.0593 24.7015C32.6119 24.7015 32.2637 24.3972 32.2637 23.9634V19.7937C32.2637 17.6662 34.1526 15.9297 36.4371 15.9297C38.772 15.9297 40.6106 17.6662 40.6106 19.7937V23.9634C40.6106 24.3972 40.2624 24.7015 39.8165 24.7015Z" fill="#473DC6"/>
<path fill-rule="evenodd" clip-rule="evenodd" d="M39.8165 22.6158H33.0593C32.6119 22.6158 32.2637 22.3115 32.2637 21.8776C32.2637 21.4866 32.6119 21.1836 33.0593 21.1836H39.8165C40.2624 21.1836 40.6106 21.4866 40.6106 21.8776C40.6106 22.3115 40.2624 22.6158 39.8165 22.6158Z" fill="#473DC6"/>
<path fill-rule="evenodd" clip-rule="evenodd" d="M19.7947 24.7015C17.808 24.7015 16.168 23.2253 16.168 21.4008V19.2732C16.168 17.4499 17.808 15.9297 19.7947 15.9297C21.4837 15.9297 22.9741 17.0589 23.3222 18.6218C23.4215 19.0129 23.1237 19.4039 22.6763 19.4467C22.2289 19.5335 21.7815 19.2732 21.6822 18.8822C21.4837 18.0132 20.6895 17.4059 19.7947 17.4059C18.7014 17.4059 17.8569 18.2308 17.8569 19.2732V21.4008C17.8569 22.4004 18.7014 23.268 19.7947 23.268C20.6895 23.268 21.4837 22.6167 21.6822 21.7478C21.7815 21.358 22.2289 21.0964 22.6763 21.1845C23.1237 21.2712 23.4215 21.6183 23.3222 22.0093C22.9741 23.5723 21.4837 24.7015 19.7947 24.7015Z" fill="#473DC6"/>
<path fill-rule="evenodd" clip-rule="evenodd" d="M45.0813 24.7015C44.6339 24.7015 44.2871 24.3972 44.2871 23.9634V16.6678C44.2871 16.2767 44.6339 15.9297 45.0813 15.9297C45.5287 15.9297 45.9257 16.2767 45.9257 16.6678V23.9634C45.9257 24.3972 45.5287 24.7015 45.0813 24.7015Z" fill="#473DC6"/>
<path fill-rule="evenodd" clip-rule="evenodd" d="M47.465 17.4059H42.7449C42.2486 17.4059 41.9004 17.0589 41.9004 16.6678C41.9004 16.2767 42.2486 15.9297 42.7449 15.9297H47.465C47.9124 15.9297 48.3094 16.2767 48.3094 16.6678C48.3094 17.0589 47.9124 17.4059 47.465 17.4059Z" fill="#473DC6"/>
<path fill-rule="evenodd" clip-rule="evenodd" d="M47.465 24.7011H42.7449C42.2486 24.7011 41.9004 24.3968 41.9004 23.963C41.9004 23.5719 42.2486 23.2676 42.7449 23.2676H47.465C47.9124 23.2676 48.3094 23.5719 48.3094 23.963C48.3094 24.3968 47.9124 24.7011 47.465 24.7011Z" fill="#473DC6"/>
<path fill-rule="evenodd" clip-rule="evenodd" d="M30.1759 24.7015H25.4054C24.9594 24.7015 24.6113 24.3972 24.6113 23.9634V16.6678C24.6113 16.2767 24.9594 15.9297 25.4054 15.9297C25.8528 15.9297 26.2499 16.2767 26.2499 16.6678V23.268H30.1759C30.6233 23.268 30.97 23.5723 30.97 23.9634C30.97 24.3972 30.6233 24.7015 30.1759 24.7015Z" fill="#473DC6"/>
<path fill-rule="evenodd" clip-rule="evenodd" d="M57.1525 24.7004C56.6561 24.7004 56.308 24.3961 56.308 23.9623V20.4012L54.5197 24.2666C54.4205 24.5269 54.0723 24.7004 53.7746 24.7004C53.4264 24.7004 53.1286 24.5269 52.979 24.2666L51.1908 20.4012V23.9623C51.1908 24.3961 50.8426 24.7004 50.3952 24.7004C49.899 24.7004 49.5508 24.3961 49.5508 23.9623V16.6667C49.5508 16.3196 49.85 16.0153 50.2471 15.9713C50.5952 15.8845 50.9923 16.0581 51.1405 16.4064L53.7746 22.051L56.3583 16.4064C56.5065 16.0581 56.905 15.8845 57.302 15.9713C57.6991 16.0153 57.948 16.3196 57.948 16.6667V23.9623C57.948 24.3961 57.5999 24.7004 57.1525 24.7004Z" fill="#473DC6"/>
<path fill-rule="evenodd" clip-rule="evenodd" d="M54.1735 64.5652H33.9528C33.4565 64.5652 33.1084 64.2181 33.1084 63.8271C33.1084 63.436 33.4565 63.1317 33.9528 63.1317H54.1735C54.6209 63.1317 55.0179 63.436 55.0179 63.8271C55.0179 64.2181 54.6209 64.5652 54.1735 64.5652ZM28.5884 64.5652H19.9929C19.5455 64.5652 19.1484 64.2181 19.1484 63.8271C19.1484 63.436 19.5455 63.1317 19.9929 63.1317H28.5884C29.0344 63.1317 29.3825 63.436 29.3825 63.8271C29.3825 64.2181 29.0344 64.5652 28.5884 64.5652ZM50.5972 61.9158H49.3543C48.9069 61.9158 48.5602 61.6128 48.5602 61.1777C48.5602 60.7867 48.9069 60.4836 49.3543 60.4836H50.5972C51.0432 60.4836 51.3913 60.7867 51.3913 61.1777C51.3913 61.6128 51.0432 61.9158 50.5972 61.9158ZM34.8476 61.9158H23.5706C23.1233 61.9158 22.7751 61.6128 22.7751 61.1777C22.7751 60.7867 23.1233 60.4836 23.5706 60.4836H34.8476C35.295 60.4836 35.6921 60.7867 35.6921 61.1777C35.6921 61.6128 35.295 61.9158 34.8476 61.9158ZM54.1735 59.2678H27.8432C27.3958 59.2678 26.9974 58.9635 26.9974 58.5297C26.9974 58.1386 27.3958 57.8343 27.8432 57.8343H54.1735C54.6209 57.8343 55.0179 58.1386 55.0179 58.5297C55.0179 58.9635 54.6209 59.2678 54.1735 59.2678ZM22.4773 59.2678H19.9929C19.5455 59.2678 19.1484 58.9635 19.1484 58.5297C19.1484 58.1386 19.5455 57.8343 19.9929 57.8343H22.4773C22.9247 57.8343 23.3218 58.1386 23.3218 58.5297C23.3218 58.9635 22.9247 59.2678 22.4773 59.2678ZM54.1735 54.0571H33.9528C33.4565 54.0571 33.1084 53.7088 33.1084 53.3177C33.1084 52.928 33.4565 52.6237 33.9528 52.6237H54.1735C54.6209 52.6237 55.0179 52.928 55.0179 53.3177C55.0179 53.7088 54.6209 54.0571 54.1735 54.0571ZM28.5884 54.0571H19.9929C19.5455 54.0571 19.1484 53.7088 19.1484 53.3177C19.1484 52.928 19.5455 52.6237 19.9929 52.6237H28.5884C29.0344 52.6237 29.3825 52.928 29.3825 53.3177C29.3825 53.7088 29.0344 54.0571 28.5884 54.0571ZM50.5972 51.4078H49.3543C48.9069 51.4078 48.5602 51.1035 48.5602 50.6697C48.5602 50.2786 48.9069 49.9743 49.3543 49.9743H50.5972C51.0432 49.9743 51.3913 50.2786 51.3913 50.6697C51.3913 51.1035 51.0432 51.4078 50.5972 51.4078ZM34.8476 51.4078H23.5706C23.1233 51.4078 22.7751 51.1035 22.7751 50.6697C22.7751 50.2786 23.1233 49.9743 23.5706 49.9743H34.8476C35.295 49.9743 35.6921 50.2786 35.6921 50.6697C35.6921 51.1035 35.295 51.4078 34.8476 51.4078ZM54.1735 48.7585H27.8432C27.3958 48.7585 26.9974 48.4554 26.9974 48.0204C26.9974 47.6293 27.3958 47.3263 27.8432 47.3263H54.1735C54.6209 47.3263 55.0179 47.6293 55.0179 48.0204C55.0179 48.4554 54.6209 48.7585 54.1735 48.7585ZM22.4773 48.7585H19.9929C19.5455 48.7585 19.1484 48.4554 19.1484 48.0204C19.1484 47.6293 19.5455 47.3263 19.9929 47.3263H22.4773C22.9247 47.3263 23.3218 47.6293 23.3218 48.0204C23.3218 48.4554 22.9247 48.7585 22.4773 48.7585ZM54.1735 43.5478H33.9528C33.4565 43.5478 33.1084 43.2007 33.1084 42.8097C33.1084 42.4187 33.4565 42.1144 33.9528 42.1144H54.1735C54.6209 42.1144 55.0179 42.4187 55.0179 42.8097C55.0179 43.2007 54.6209 43.5478 54.1735 43.5478ZM28.5884 43.5478H19.9929C19.5455 43.5478 19.1484 43.2007 19.1484 42.8097C19.1484 42.4187 19.5455 42.1144 19.9929 42.1144H28.5884C29.0344 42.1144 29.3825 42.4187 29.3825 42.8097C29.3825 43.2007 29.0344 43.5478 28.5884 43.5478ZM50.5972 40.8985H49.3543C48.9069 40.8985 48.5602 40.5954 48.5602 40.1604C48.5602 39.7706 48.9069 39.4663 49.3543 39.4663H50.5972C51.0432 39.4663 51.3913 39.7706 51.3913 40.1604C51.3913 40.5954 51.0432 40.8985 50.5972 40.8985ZM34.8476 40.8985H23.5706C23.1233 40.8985 22.7751 40.5954 22.7751 40.1604C22.7751 39.7706 23.1233 39.4663 23.5706 39.4663H34.8476C35.295 39.4663 35.6921 39.7706 35.6921 40.1604C35.6921 40.5954 35.295 40.8985 34.8476 40.8985ZM54.1735 38.2504H27.8432C27.3958 38.2504 26.9974 37.9461 26.9974 37.5123C26.9974 37.1213 27.3958 36.8169 27.8432 36.8169H54.1735C54.6209 36.8169 55.0179 37.1213 55.0179 37.5123C55.0179 37.9461 54.6209 38.2504 54.1735 38.2504ZM22.4773 38.2504H19.9929C19.5455 38.2504 19.1484 37.9461 19.1484 37.5123C19.1484 37.1213 19.5455 36.8169 19.9929 36.8169H22.4773C22.9247 36.8169 23.3218 37.1213 23.3218 37.5123C23.3218 37.9461 22.9247 38.2504 22.4773 38.2504ZM54.1735 33.0397H33.9528C33.4565 33.0397 33.1084 32.6914 33.1084 32.3004C33.1084 31.9106 33.4565 31.6064 33.9528 31.6064H54.1735C54.6209 31.6064 55.0179 31.9106 55.0179 32.3004C55.0179 32.6914 54.6209 33.0397 54.1735 33.0397ZM28.5884 33.0397H19.9929C19.5455 33.0397 19.1484 32.6914 19.1484 32.3004C19.1484 31.9106 19.5455 31.6064 19.9929 31.6064H28.5884C29.0344 31.6064 29.3825 31.9106 29.3825 32.3004C29.3825 32.6914 29.0344 33.0397 28.5884 33.0397ZM50.5972 30.3904H49.3543C48.9069 30.3904 48.5602 30.0434 48.5602 29.6523C48.5602 29.2613 48.9069 28.957 49.3543 28.957H50.5972C51.0432 28.957 51.3913 29.2613 51.3913 29.6523C51.3913 30.0434 51.0432 30.3904 50.5972 30.3904ZM34.8476 30.3904H23.5706C23.1233 30.3904 22.7751 30.0434 22.7751 29.6523C22.7751 29.2613 23.1233 28.957 23.5706 28.957H34.8476C35.295 28.957 35.6921 29.2613 35.6921 29.6523C35.6921 30.0434 35.295 30.3904 34.8476 30.3904Z" fill="#473DC6"/>
<mask id="mask0_93_14657" style="mask-type:luminance" maskUnits="userSpaceOnUse" x="6" y="5" width="62" height="70">
<path d="M6.69922 5.82617H67.4648V74.5063H6.69922V5.82617Z" fill="white"/>
</mask>
<g mask="url(#mask0_93_14657)">
<path fill-rule="evenodd" clip-rule="evenodd" d="M62.0738 74.5494H12.0444C9.16293 74.5494 6.82812 72.4647 6.82812 69.9461V19.1838C6.82812 18.7927 7.22662 18.4885 7.67259 18.4885C8.11999 18.4885 8.51702 18.7927 8.51702 19.1838V69.9461C8.51702 71.6838 10.1081 73.0732 12.0444 73.0732H62.0738C64.062 73.0732 65.6516 71.6838 65.6516 69.9461V10.5417C65.6516 8.80527 64.062 7.41586 62.0738 7.41586H48.2621C47.8161 7.41586 47.468 7.06881 47.468 6.67776C47.468 6.28671 47.8161 5.98242 48.2621 5.98242H62.0738C64.9554 5.98242 67.3405 8.02317 67.3405 10.5417V69.9461C67.3405 72.4647 64.9554 74.5494 62.0738 74.5494ZM25.9065 7.41586H15.2741C14.8266 7.41586 14.4296 7.06881 14.4296 6.67776C14.4296 6.28671 14.8266 5.98242 15.2741 5.98242H25.9065C26.3539 5.98242 26.7007 6.28671 26.7007 6.67776C26.7007 7.06881 26.3539 7.41586 25.9065 7.41586Z" fill="#473DC6"/>
</g>
<path fill-rule="evenodd" clip-rule="evenodd" d="M60.8289 69.6016H13.2838C12.8365 69.6016 12.4883 69.2973 12.4883 68.9063V18.535C12.4883 18.1013 12.8365 17.797 13.2838 17.797C13.7312 17.797 14.1283 18.1013 14.1283 18.535V68.1682H60.0334V12.3248H17.8053C17.3579 12.3248 16.9594 12.0217 16.9594 11.6307C16.9594 11.2396 17.3579 10.8926 17.8053 10.8926H60.8289C61.3252 10.8926 61.6733 11.2396 61.6733 11.6307V68.9063C61.6733 69.2973 61.3252 69.6016 60.8289 69.6016Z" fill="#473DC6"/>
<mask id="mask1_93_14657" style="mask-type:luminance" maskUnits="userSpaceOnUse" x="22" y="0" width="30" height="13">
<path d="M22.9043 0.427734H51.2616V12.5868H22.9043V0.427734Z" fill="white"/>
</mask>
<g mask="url(#mask1_93_14657)">
<path fill-rule="evenodd" clip-rule="evenodd" d="M50.1036 12.3252C49.6562 12.3252 49.3094 12.0649 49.2591 11.6739C48.7628 6.15894 43.3969 1.85991 37.0872 1.85991C30.7777 1.85991 25.4117 6.15894 24.9155 11.6739C24.8651 12.0649 24.4681 12.3692 24.0206 12.3252C23.5244 12.3252 23.2266 11.9782 23.2266 11.5443C23.8221 5.33409 29.8843 0.427734 37.0872 0.427734C44.2413 0.427734 50.3524 5.33409 50.8991 11.5443C50.948 11.9782 50.6013 12.3252 50.1538 12.3252H50.1036Z" fill="#473DC6"/>
</g>
<path fill-rule="evenodd" clip-rule="evenodd" d="M42.2987 8.32977H31.8658C31.4184 8.32977 31.0703 7.98271 31.0703 7.59162C31.0703 7.20057 31.4184 6.85352 31.8658 6.85352H42.2987C42.7461 6.85352 43.0943 7.20057 43.0943 7.59162C43.0943 7.98271 42.7461 8.32977 42.2987 8.32977Z" fill="#473DC6"/>
<path fill-rule="evenodd" clip-rule="evenodd" d="M9.40972 20.0993C4.29258 20.0993 0.119141 16.4515 0.119141 11.9789C0.119141 7.50614 4.29258 3.90234 9.40972 3.90234C14.478 3.90234 18.6514 7.50614 18.6514 11.9789C18.6514 16.4515 14.478 20.0993 9.40972 20.0993ZM9.40972 5.33456C5.1874 5.33456 1.75917 8.331 1.75917 11.9789C1.75917 15.6706 5.1874 18.6231 9.40972 18.6231C13.5832 18.6231 17.0114 15.6706 17.0114 11.9789C17.0114 8.331 13.5832 5.33456 9.40972 5.33456Z" fill="#473DC6"/>
</svg>
