<svg width="53" height="53" viewBox="0 0 53 53" fill="none" xmlns="http://www.w3.org/2000/svg">
<g clip-path="url(#clip0_93_1733)">
<path d="M26.6726 46.2511C26.2487 46.2511 25.9051 46.5947 25.9051 47.0185C25.9051 47.4424 26.2487 47.786 26.6726 47.786C27.0964 47.786 27.44 47.4424 27.44 47.0185C27.44 46.5947 27.0964 46.2511 26.6726 46.2511ZM26.6726 41.6465C26.2487 41.6465 25.9051 41.9901 25.9051 42.4139C25.9051 42.8377 26.2487 43.1813 26.6726 43.1813C27.0964 43.1813 27.44 42.8377 27.44 42.4139C27.44 41.9901 27.0964 41.6465 26.6726 41.6465ZM26.6726 50.8557C26.2487 50.8557 25.9051 51.1994 25.9051 51.6232C25.9051 52.047 26.2487 52.3906 26.6726 52.3906C27.0964 52.3906 27.44 52.047 27.44 51.6232C27.44 51.1994 27.0964 50.8557 26.6726 50.8557ZM41.7494 35.1111L38.3334 33.9616C40.2218 32.6165 41.4054 30.409 41.4054 28.026C41.4103 28.0162 41.4054 14.7329 41.4054 14.7329C41.4054 10.7989 39.8731 7.09934 37.0906 4.31588C34.3077 1.53273 30.6078 0 26.6726 0C24.1449 0 21.6511 0.651097 19.4607 1.88299C19.0913 2.09071 18.9602 2.55865 19.1679 2.92804C19.3756 3.29754 19.8437 3.42841 20.213 3.2208C22.1742 2.11793 24.4079 1.53488 26.6726 1.53488C30.1978 1.53488 33.5122 2.90788 36.0053 5.40094C38.4978 7.89451 39.8705 11.2086 39.8705 14.7328V14.7363C39.4248 14.4805 38.909 14.3333 38.3594 14.3333H37.6219C35.5686 13.9807 33.5548 13.3988 31.6353 12.6022C30.1746 11.9959 28.755 11.2593 27.4162 10.4128C26.9473 10.1163 26.3356 10.1438 25.8941 10.4813C24.8496 11.2791 23.7218 11.9691 22.5417 12.5319C20.4214 13.5431 18.1399 14.1489 15.7601 14.3333H14.9859C14.4362 14.3333 13.9205 14.4805 13.4747 14.7363V14.7328C13.4747 11.1619 14.8782 7.81715 17.4267 5.31489C17.7292 5.01794 17.7336 4.5321 17.4367 4.22962C17.1398 3.92725 16.6539 3.92265 16.3514 4.2197C13.5066 7.01287 11.9399 10.7466 11.9399 14.7328V28.0259C11.9399 30.4089 13.1234 32.6165 15.0119 33.9615L11.5957 35.1111C8.78178 36.0583 6.89111 38.6891 6.89111 41.6577V51.6232C6.89111 52.047 7.23472 52.3906 7.65855 52.3906C8.08239 52.3906 8.42599 52.047 8.42599 51.6232V41.6577C8.42599 39.3488 9.89662 37.3025 12.0854 36.5659L13.4191 36.1171C13.2217 36.9282 13.1344 37.7643 13.1651 38.592C13.1942 39.3779 13.3268 40.1504 13.5563 40.8995C12.0655 41.347 10.9759 42.7313 10.9759 44.366V47.4892C10.9759 48.2619 11.6045 48.8904 12.3771 48.8904H13.2371C13.661 48.8904 14.0046 48.5468 14.0046 48.1229C14.0046 47.6991 13.661 47.3555 13.2371 47.3555H12.5107V44.3659C12.5107 43.217 13.445 42.2824 14.5936 42.2817C14.5942 42.2817 14.5947 42.2818 14.5953 42.2818C14.5959 42.2818 14.5965 42.2817 14.5971 42.2817C15.7454 42.2829 16.6793 43.2174 16.6793 44.3659V47.3555H15.953C15.5291 47.3555 15.1855 47.6991 15.1855 48.1229C15.1855 48.5468 15.5291 48.8904 15.953 48.8904H16.813C17.5856 48.8904 18.2141 48.2618 18.2141 47.4892V44.366C18.2141 42.554 16.8756 41.049 15.1355 40.7873C14.8751 40.0609 14.7273 39.3057 14.6987 38.5352C14.661 37.5136 14.8393 36.4757 15.2149 35.5128L20.45 33.751L25.9429 39.2439C26.3916 39.6968 27.1568 39.699 27.6071 39.2439L29.1231 37.7279C29.4228 37.4282 29.4228 36.9422 29.1231 36.6426C28.8233 36.3429 28.3374 36.3429 28.0378 36.6426L26.7749 37.9052L21.9102 33.0406C22.6315 32.4135 22.9602 31.4577 22.8865 30.4933C24.0619 30.9032 25.3217 31.1282 26.6315 31.1328C27.9517 31.1374 29.2445 30.922 30.4586 30.5059C30.3333 31.4846 30.7867 32.5497 31.5482 33.132L30.5649 34.1152C30.2652 34.4149 30.2652 34.9009 30.5649 35.2005C30.8646 35.5002 31.3506 35.5002 31.6502 35.2005L33.0483 33.8024L37.7218 35.3751C38.0752 36.274 38.2576 37.2462 38.2485 38.2082C38.2403 39.0804 38.0737 39.9613 37.7665 40.7824C35.7714 41.0436 34.2256 42.7533 34.2256 44.8184C34.2256 47.0637 36.0522 48.8903 38.2975 48.8903C40.5427 48.8903 42.3693 47.0638 42.3693 44.8185C42.3693 42.9389 41.0888 41.3534 39.3546 40.8867C39.6278 40.0255 39.7749 39.1203 39.7834 38.2228C39.7906 37.4715 39.7007 36.7149 39.5212 35.9806L41.2599 36.5657C43.4487 37.3024 44.9192 39.3487 44.9192 41.6576V51.6231C44.9192 52.0469 45.2628 52.3905 45.6867 52.3905C46.1105 52.3905 46.4541 52.0469 46.4541 51.6231V41.6576C46.4541 38.6891 44.5635 36.0584 41.7494 35.1111ZM38.32 15.8682H38.3594C39.1908 15.8682 39.8672 16.5432 39.8705 17.3737V17.3855C39.8668 18.2272 39.1655 18.9152 38.32 18.891V15.8682ZM13.4746 17.3738C13.4771 16.5316 14.1806 15.8446 15.0252 15.8683V18.8912C14.1797 18.9146 13.4782 18.2294 13.4746 17.3857V17.3738ZM21.3516 30.9094C21.3516 31.4594 21.0019 31.9463 20.4806 32.1212L16.9597 33.3061C14.8648 32.4093 13.4747 30.3206 13.4747 28.026V20.0232C13.9563 20.3016 14.4885 20.4356 15.0731 20.4262C15.4374 24.5222 17.8936 28.0257 21.3516 29.8298V30.9094ZM26.6368 29.5979C21.0805 29.5787 16.56 24.9893 16.56 19.3674V15.8002C18.8831 15.5451 21.1145 14.9129 23.2024 13.9173C24.4366 13.3288 25.6176 12.6117 26.715 11.785C28.0923 12.6465 29.5491 13.3982 31.047 14.0198C32.8916 14.7855 34.819 15.3638 36.785 15.7418V19.4855C36.785 22.1933 35.7287 24.7371 33.8107 26.6485C31.8601 28.5925 29.4235 29.6077 26.6368 29.5979ZM36.3855 33.306L32.8638 32.1209C32.3432 31.9463 31.9935 31.4594 31.9935 30.9094V29.8521C33.0501 29.3084 34.0281 28.5988 34.8942 27.7357C36.8797 25.7571 38.0629 23.1898 38.2822 20.426C38.8465 20.4341 39.4083 20.2916 39.8706 20.023V28.0258C39.8705 30.3205 38.4804 32.4093 36.3855 33.306ZM40.8344 44.8185C40.8344 46.2174 39.6963 47.3555 38.2976 47.3555C36.8987 47.3555 35.7606 46.2174 35.7606 44.8185C35.7606 43.4207 36.8971 42.2833 38.2946 42.2817C38.2954 42.2817 38.2962 42.2818 38.297 42.2818C38.2978 42.2818 38.2985 42.2817 38.2992 42.2817C39.6973 42.2825 40.8344 43.4202 40.8344 44.8185ZM31.635 16.4942C31.2112 16.4942 30.8676 16.8379 30.8676 17.2617V19.0173C30.8676 19.4411 31.2112 19.7847 31.635 19.7847C32.0589 19.7847 32.4025 19.4411 32.4025 19.0173V17.2617C32.4025 16.8379 32.0589 16.4942 31.635 16.4942ZM27.7622 23.7858C27.5895 23.9084 27.2271 24.1169 26.7401 24.1343C26.1908 24.1534 25.7781 23.924 25.5822 23.7851C25.2364 23.5401 24.7573 23.6218 24.5123 23.9677C24.2672 24.3134 24.349 24.7925 24.6948 25.0376C25.0344 25.2783 25.7324 25.6704 26.6732 25.6704C27.4974 25.6704 28.2628 25.3129 28.651 25.0371C28.9966 24.7916 29.0777 24.3125 28.8322 23.967C28.5869 23.6214 28.1078 23.5403 27.7622 23.7858ZM21.7101 16.4942C21.2863 16.4942 20.9426 16.8379 20.9426 17.2617V19.0173C20.9426 19.4411 21.2863 19.7847 21.7101 19.7847C22.1339 19.7847 22.4775 19.4411 22.4775 19.0173V17.2617C22.4775 16.8379 22.134 16.4942 21.7101 16.4942Z" fill="#4C46C7"/>
</g>
<defs>
<clipPath id="clip0_93_1733">
<rect width="52.3906" height="52.3906" fill="white" transform="translate(0.477051)"/>
</clipPath>
</defs>
</svg>
