<svg width="89" height="83" viewBox="0 0 89 83" fill="none" xmlns="http://www.w3.org/2000/svg">
<path d="M44.7648 12.4982C42.3741 12.4982 40.4277 10.6785 40.4277 8.4414C40.4277 6.20421 42.3741 4.38281 44.7648 4.38281C47.1554 4.38281 49.1 6.20421 49.1 8.4414C49.1 10.6785 47.1572 12.4982 44.7648 12.4982ZM44.7648 6.2504C43.4742 6.2504 42.4252 7.2337 42.4252 8.43809C42.4252 9.64405 43.476 10.6273 44.7648 10.6273C46.0535 10.6273 47.1025 9.64405 47.1025 8.43809C47.1025 7.2337 46.0535 6.2504 44.7648 6.2504Z" fill="#EFF1FF"/>
<path d="M50.9044 17.303C50.4284 17.303 50.0088 16.9863 49.9224 16.5341C49.4764 14.1947 47.3078 12.5004 44.7656 12.5004C42.2251 12.5004 40.0548 14.198 39.6053 16.5341C39.5083 17.0423 38.9882 17.3806 38.4469 17.2882C37.9039 17.1974 37.5425 16.7107 37.6412 16.2042C38.2601 12.9755 41.2554 10.6328 44.7656 10.6328C48.2758 10.6328 51.2711 12.9772 51.8864 16.2075C51.9851 16.7173 51.622 17.2024 51.0808 17.2915C51.0226 17.2997 50.9626 17.303 50.9044 17.303Z" fill="#EFF1FF"/>
<mask id="mask0_93_14842" style="mask-type:luminance" maskUnits="userSpaceOnUse" x="34" y="0" width="22" height="20">
<path d="M34.2969 0.355469H55.0572V19.811H34.2969V0.355469Z" fill="white"/>
</mask>
<g mask="url(#mask0_93_14842)">
<path d="M44.7658 19.4942C39.1279 19.4942 34.5371 15.2016 34.5371 9.924C34.5371 4.64647 39.1279 0.355469 44.7658 0.355469C50.4054 0.355469 54.9926 4.64811 54.9926 9.92569C54.9926 15.2032 50.4054 19.4942 44.7658 19.4942ZM44.7658 2.22298C40.2279 2.22298 36.5345 5.67756 36.5345 9.92569C36.5345 14.1738 40.2262 17.6267 44.7658 17.6267C49.3036 17.6267 52.9952 14.1738 52.9952 9.92569C52.9952 5.67756 49.3018 2.22298 44.7658 2.22298Z" fill="#EFF1FF"/>
</g>
<path d="M11.054 44.0451C8.66336 44.0451 6.71875 42.2254 6.71875 39.9882C6.71875 37.7511 8.66336 35.9297 11.054 35.9297C13.4447 35.9297 15.391 37.7511 15.391 39.9882C15.391 42.2254 13.4447 44.0451 11.054 44.0451ZM11.054 37.7973C9.76527 37.7973 8.71625 38.7806 8.71625 39.9849C8.71625 41.191 9.76705 42.1743 11.054 42.1743C12.3428 42.1743 13.3936 41.191 13.3936 39.9849C13.3936 38.7806 12.3446 37.7973 11.054 37.7973Z" fill="#EFF1FF"/>
<path d="M17.1916 48.8476C16.7155 48.8476 16.2959 48.5292 16.2078 48.0772C15.7635 45.7394 13.5932 44.0434 11.0509 44.0434C8.51045 44.0434 6.34193 45.7411 5.89236 48.0772C5.79539 48.5853 5.2753 48.9218 4.73406 48.8311C4.19105 48.7404 3.82963 48.2537 3.92836 47.7472C4.54718 44.5185 7.54255 42.1758 11.0509 42.1758C14.5629 42.1758 17.5583 44.5202 18.1736 47.7521C18.2687 48.2603 17.9073 48.7453 17.3661 48.8361C17.3096 48.8411 17.2515 48.8476 17.1916 48.8476Z" fill="#EFF1FF"/>
<mask id="mask1_93_14842" style="mask-type:luminance" maskUnits="userSpaceOnUse" x="0" y="31" width="22" height="21">
<path d="M0.828125 31.6328H21.6608V51.0602H0.828125V31.6328Z" fill="white"/>
</mask>
<g mask="url(#mask1_93_14842)">
<path d="M11.0549 51.0388C5.4153 51.0388 0.828125 46.7462 0.828125 41.4686C0.828125 36.1927 5.4153 31.8984 11.0549 31.8984C16.6964 31.8984 21.2836 36.1911 21.2836 41.4686C21.2818 46.7462 16.6929 51.0388 11.0549 51.0388ZM11.0549 33.7675C6.51714 33.7675 2.82554 37.2222 2.82554 41.4686C2.82554 45.7151 6.51714 49.1696 11.0549 49.1696C15.5945 49.1696 19.2862 45.7151 19.2862 41.4686C19.2862 37.2222 15.5927 33.7675 11.0549 33.7675Z" fill="#EFF1FF"/>
</g>
<path d="M44.7648 75.5881C42.3741 75.5881 40.4277 73.7684 40.4277 71.5313C40.4277 69.2941 42.3741 67.4727 44.7648 67.4727C47.1554 67.4727 49.1 69.2941 49.1 71.5313C49.1 73.7684 47.1572 75.5881 44.7648 75.5881ZM44.7648 69.3403C43.4742 69.3403 42.4252 70.3219 42.4252 71.5296C42.4252 72.7372 43.476 73.7172 44.7648 73.7172C46.0535 73.7172 47.1025 72.7372 47.1025 71.5296C47.1025 70.3219 46.0535 69.3403 44.7648 69.3403Z" fill="#EFF1FF"/>
<path d="M50.9044 80.3968C50.4284 80.3968 50.0088 80.0784 49.9224 79.6263C49.4764 77.2901 47.3078 75.5925 44.7656 75.5925C42.2251 75.5925 40.0548 77.2901 39.6053 79.6263C39.5083 80.1345 38.9882 80.4726 38.4469 80.3819C37.9039 80.2895 37.5425 79.8029 37.6412 79.2964C38.2601 76.0693 41.2554 73.7266 44.7656 73.7266C48.2758 73.7266 51.2711 76.0693 51.8864 79.3013C51.9851 79.8094 51.622 80.2945 51.0808 80.3852C51.0226 80.3918 50.9626 80.3968 50.9044 80.3968Z" fill="#EFF1FF"/>
<mask id="mask2_93_14842" style="mask-type:luminance" maskUnits="userSpaceOnUse" x="34" y="63" width="22" height="20">
<path d="M34.2969 63.3125H55.0572V82.6704H34.2969V63.3125Z" fill="white"/>
</mask>
<g mask="url(#mask2_93_14842)">
<path d="M44.7658 82.5854C39.1279 82.5854 34.5371 78.293 34.5371 73.0155C34.5371 67.7396 39.1243 63.4453 44.7658 63.4453C50.4054 63.4453 54.9926 67.7379 54.9926 73.0155C54.9926 78.293 50.4054 82.5854 44.7658 82.5854ZM44.7658 65.3161C40.2279 65.3161 36.5345 68.7691 36.5345 73.0171C36.5345 77.2652 40.2279 80.7166 44.7658 80.7166C49.3018 80.7166 52.9952 77.2619 52.9952 73.0155C52.9952 68.7691 49.3018 65.3161 44.7658 65.3161Z" fill="#EFF1FF"/>
</g>
<path d="M78.4756 44.0451C76.085 44.0451 74.1387 42.2254 74.1387 39.9882C74.1387 37.7511 76.085 35.9297 78.4756 35.9297C80.8663 35.9297 82.8113 37.7511 82.8113 39.9882C82.8113 42.2254 80.8663 44.0451 78.4756 44.0451ZM78.4756 37.7973C77.1851 37.7973 76.1361 38.7806 76.1361 39.9849C76.1361 41.191 77.1851 42.1743 78.4756 42.1743C79.7662 42.1743 80.8134 41.191 80.8134 39.9849C80.8134 38.7806 79.7662 37.7973 78.4756 37.7973Z" fill="#EFF1FF"/>
<path d="M84.6137 48.8476C84.1376 48.8476 83.7179 48.5292 83.6316 48.0772C83.1853 45.7394 81.0169 44.0434 78.4746 44.0434C75.9341 44.0434 73.7638 45.7411 73.316 48.0772C73.2173 48.5853 72.7007 48.9235 72.1577 48.8311C71.6129 48.7404 71.2515 48.2537 71.3502 47.7472C71.9691 44.5185 74.9644 42.1758 78.4746 42.1758C81.9844 42.1758 84.9801 44.5202 85.5951 47.7521C85.6944 48.2603 85.3312 48.7453 84.7897 48.8361C84.7316 48.8411 84.6718 48.8476 84.6137 48.8476Z" fill="#EFF1FF"/>
<mask id="mask3_93_14842" style="mask-type:luminance" maskUnits="userSpaceOnUse" x="68" y="31" width="21" height="21">
<path d="M68.1465 31.6328H88.7922V51.0602H68.1465V31.6328Z" fill="white"/>
</mask>
<g mask="url(#mask3_93_14842)">
<path d="M78.4747 51.0388C72.8368 51.0388 68.2461 46.7462 68.2461 41.4686C68.2461 36.1927 72.835 31.8984 78.4747 31.8984C84.1143 31.8984 88.7013 36.1911 88.7013 41.4686C88.7013 46.7462 84.1143 51.0388 78.4747 51.0388ZM78.4747 33.7675C73.9369 33.7675 70.2435 37.2205 70.2435 41.4686C70.2435 45.7167 73.9351 49.1696 78.4747 49.1696C83.0143 49.1696 86.704 45.7151 86.704 41.4686C86.704 37.2222 83.0111 33.7675 78.4747 33.7675Z" fill="#EFF1FF"/>
</g>
<path d="M15.0253 29.1609C14.8719 29.1609 14.7168 29.128 14.5705 29.0587C14.0804 28.8244 13.8847 28.2618 14.1332 27.8032C17.6962 21.257 23.6038 16.0042 30.7701 13.0083C30.897 12.9539 31.0381 12.9258 31.1774 12.9258C31.7291 12.9258 32.1752 13.3448 32.1752 13.8612C32.1752 14.2555 31.9143 14.5937 31.5441 14.729C24.8132 17.5549 19.2616 22.4976 15.9138 28.6495C15.7375 28.9762 15.3884 29.1609 15.0253 29.1609Z" fill="#EFF1FF"/>
<path d="M74.5001 29.1517C74.0964 29.1517 73.7474 28.9274 73.5922 28.604C70.2215 22.4406 64.6488 17.5045 57.9002 14.6966C57.5389 14.5564 57.2832 14.2231 57.2832 13.8338C57.2832 13.3174 57.7292 12.8984 58.2828 12.8984H58.2846C58.4238 12.8984 58.5613 12.9264 58.6901 12.9792C65.8794 15.9636 71.8134 21.223 75.3939 27.7907C75.4644 27.921 75.5033 28.0678 75.5033 28.2147C75.4997 28.731 75.0519 29.1517 74.5001 29.1517Z" fill="#EFF1FF"/>
<path d="M30.1215 71.3735C29.9698 71.3735 29.8164 71.3422 29.6789 71.2795C22.6903 68.0788 17.0134 62.6955 13.6901 56.116C13.4539 55.6491 13.6672 55.0915 14.1643 54.8704C14.6651 54.651 15.2592 54.8506 15.4955 55.3159C18.6231 61.506 23.9632 66.5742 30.5357 69.5901C30.8795 69.7369 31.1193 70.0619 31.1193 70.4398C31.1175 70.9578 30.6715 71.3735 30.1215 71.3735Z" fill="#EFF1FF"/>
<path d="M60.5218 70.8426C60.1657 70.8426 59.8201 70.6628 59.6403 70.3494C59.3794 69.894 59.5628 69.3281 60.0475 69.0839C66.532 65.8272 71.687 60.5478 74.5607 54.2207C74.7776 53.7472 75.3629 53.5262 75.8724 53.7258C76.3784 53.9287 76.6164 54.4781 76.4014 54.9517C73.3495 61.6697 67.8789 67.2741 60.9943 70.7305C60.8409 70.8064 60.6787 70.8426 60.5218 70.8426Z" fill="#EFF1FF"/>
<path d="M74.5007 29.1486C74.4072 29.1486 74.3121 29.137 74.2168 29.1106L69.8164 27.8947C69.2857 27.7496 68.9842 27.2299 69.1411 26.7349C69.2962 26.24 69.8516 25.9578 70.3805 26.103L73.9259 27.083L75.257 24.1364C75.4721 23.6613 76.0575 23.4402 76.5652 23.6399C77.0712 23.8411 77.3092 24.3889 77.0959 24.8641L75.4175 28.5777C75.2623 28.9324 74.8939 29.1486 74.5007 29.1486Z" fill="#EFF1FF"/>
<path d="M29.6372 18.5851C29.5208 18.5851 29.401 18.5653 29.2828 18.5241C28.7662 18.341 28.5089 17.8015 28.7046 17.318L29.9017 14.3847L26.8974 13.2331C26.3862 13.0368 26.1429 12.4907 26.3527 12.0139C26.5625 11.5354 27.1425 11.3078 27.6538 11.5041L31.5606 13.0005C32.0631 13.1935 32.3082 13.7248 32.116 14.1999L30.5734 17.9863C30.4182 18.3558 30.041 18.5851 29.6372 18.5851Z" fill="#EFF1FF"/>
<path d="M13.0769 60.3993C12.9588 60.3993 12.8389 60.3812 12.7225 60.3383C12.2077 60.1552 11.9485 59.6173 12.1425 59.1323L13.6586 55.3855C13.8509 54.9071 14.4203 54.663 14.9334 54.8378L19.1188 56.2665C19.6353 56.443 19.9033 56.9792 19.7146 57.4643C19.526 57.9477 18.953 58.1984 18.4347 58.0219L15.1784 56.9132L14.0112 59.7971C13.8597 60.1701 13.4806 60.3993 13.0769 60.3993Z" fill="#EFF1FF"/>
<path d="M64.5218 72.0239C64.4213 72.0239 64.319 72.0091 64.2185 71.9811L60.2182 70.7981C59.7351 70.6562 59.4443 70.1976 59.5395 69.7323L60.3452 65.776C60.4492 65.2695 60.9692 64.9363 61.514 65.032C62.0553 65.1293 62.4096 65.616 62.3074 66.1258L61.6692 69.2654L64.8232 70.1976C65.3486 70.3527 65.6395 70.8773 65.4737 71.3706C65.338 71.7699 64.9449 72.0239 64.5218 72.0239Z" fill="#EFF1FF"/>
<path d="M33.3853 48.7195C33.2407 48.7195 33.0979 48.6898 32.9621 48.6321C32.6096 48.4787 32.3857 48.1487 32.3857 47.7858V44.4038C28.7258 43.9468 25.8945 41.0053 25.8945 37.4567C25.8945 33.5897 29.2547 30.4453 33.3853 30.4453H44.587C48.7194 30.4453 52.0777 33.5914 52.0777 37.4567C52.0777 41.3204 48.7176 44.4665 44.587 44.4665H39.196L34.0252 48.5034C33.8419 48.6453 33.6144 48.7195 33.3853 48.7195ZM33.3853 32.3128C30.3548 32.3128 27.8902 34.6192 27.8902 37.4535C27.8902 40.2894 30.3548 42.5957 33.3853 42.5957C33.9353 42.5957 34.3831 43.0147 34.3831 43.5294V45.7879L38.1946 42.8118C38.3744 42.6716 38.6001 42.5957 38.8328 42.5957H44.587C47.6158 42.5957 50.0804 40.2894 50.0804 37.4535C50.0804 34.6192 47.6158 32.3128 44.587 32.3128H33.3853Z" fill="#EFF1FF"/>
<path d="M56.569 52.4941C56.3398 52.4941 56.1106 52.4181 55.929 52.2763L51.1215 48.5214H46.1094C43.0032 48.5214 40.2212 46.5781 39.3415 43.7932C39.1863 43.2983 39.4878 42.7787 40.0167 42.6335C40.5456 42.4867 41.1009 42.7704 41.2561 43.2654C41.8855 45.2583 43.8811 46.6539 46.1094 46.6539H51.4829C51.7156 46.6539 51.9413 46.7298 52.1211 46.87L55.5694 49.5625V47.5877C55.5694 47.0713 56.0172 46.6539 56.569 46.6539C57.9229 46.6539 59.1958 46.159 60.1513 45.2665C61.1086 44.3706 61.6339 43.1828 61.6339 41.9175C61.6339 39.3043 59.3615 37.1778 56.569 37.1778H50.9487C50.3969 37.1778 49.9509 36.7587 49.9509 36.244C49.9509 35.7277 50.3969 35.3086 50.9487 35.3086H56.569C60.4634 35.3086 63.6313 38.2732 63.6313 41.9175C63.6313 43.6811 62.8962 45.3407 61.5634 46.5879C60.4686 47.6124 59.0759 48.2591 57.5668 48.4588V51.5587C57.5668 51.9216 57.3429 52.2532 56.9921 52.405C56.8581 52.4644 56.7118 52.4941 56.569 52.4941Z" fill="#EFF1FF"/>
<path d="M34.4002 38.388C34.1375 38.388 33.8819 38.289 33.695 38.1157C33.6491 38.0712 33.6086 38.0233 33.5698 37.9722C33.5345 37.9227 33.5046 37.8683 33.4799 37.8122C33.4534 37.7544 33.4341 37.6967 33.4217 37.6373C33.4076 37.5762 33.4023 37.5152 33.4023 37.4525C33.4023 37.2084 33.5098 36.9675 33.695 36.7942C33.7408 36.7514 33.792 36.7117 33.8466 36.6771C33.9013 36.6441 33.9594 36.6144 34.0194 36.5913C34.0794 36.5682 34.141 36.5501 34.2045 36.5368C34.335 36.5138 34.4672 36.5138 34.5959 36.5368C34.6612 36.5501 34.7228 36.5682 34.7828 36.5913C34.8444 36.6144 34.9026 36.6441 34.9556 36.6771C35.0102 36.7117 35.0613 36.7514 35.1071 36.7942C35.2941 36.9675 35.3999 37.2084 35.3999 37.4525C35.3999 37.5152 35.3928 37.5762 35.3787 37.6373C35.3681 37.6967 35.3469 37.7544 35.324 37.8122C35.2976 37.8683 35.2676 37.9227 35.2323 37.9722C35.1954 38.0233 35.153 38.0712 35.1071 38.1157C35.0613 38.1587 35.0102 38.1966 34.9556 38.2312C34.9026 38.2642 34.8444 38.2939 34.7828 38.317C34.7228 38.3418 34.6612 38.3583 34.5959 38.3715C34.5324 38.383 34.4672 38.388 34.4002 38.388Z" fill="#EFF1FF"/>
<path d="M38.9861 38.3876C38.9227 38.3876 38.8575 38.3826 38.7922 38.3711C38.7287 38.3579 38.6652 38.3414 38.6053 38.3167C38.5454 38.2935 38.4872 38.2638 38.4326 38.2309C38.3796 38.1962 38.3268 38.1583 38.2809 38.1154C38.2351 38.0709 38.1946 38.023 38.1575 37.9718C38.1222 37.9224 38.0905 37.8679 38.0658 37.8118C38.0394 37.7541 38.0218 37.6963 38.0076 37.6369C37.9953 37.5759 37.9883 37.5148 37.9883 37.4522C37.9883 37.208 38.0958 36.9671 38.2809 36.7939C38.3268 36.7509 38.3796 36.7114 38.4326 36.6768C38.4872 36.6438 38.5454 36.6141 38.6053 36.5909C38.6652 36.5678 38.7287 36.5497 38.7922 36.5365C39.1166 36.4771 39.4622 36.5761 39.6931 36.7939C39.88 36.9671 39.9858 37.208 39.9858 37.4522C39.9858 37.5148 39.9787 37.5759 39.9681 37.6369C39.954 37.6963 39.9346 37.7541 39.9099 37.8118C39.8852 37.8679 39.8535 37.9224 39.8182 37.9718C39.7813 38.023 39.7389 38.0709 39.6931 38.1154C39.508 38.2886 39.2506 38.3876 38.9861 38.3876Z" fill="#EFF1FF"/>
<path d="M43.5759 38.388C43.5107 38.388 43.4455 38.383 43.3802 38.3715C43.3168 38.3583 43.2551 38.3418 43.1934 38.317C43.1334 38.2939 43.0753 38.2642 43.0206 38.2312C42.9678 38.1966 42.9148 38.1587 42.869 38.1157C42.6838 37.9409 42.5781 37.7 42.5781 37.4525C42.5781 37.3931 42.5834 37.3321 42.5975 37.2727C42.6098 37.2117 42.6292 37.1523 42.6539 37.0962C42.6804 37.04 42.7103 36.9856 42.7456 36.9362C42.7826 36.885 42.8231 36.8371 42.869 36.7942C42.9148 36.7514 42.9678 36.7117 43.0206 36.6771C43.0753 36.6441 43.1334 36.6144 43.1934 36.5913C43.2551 36.5682 43.3168 36.5501 43.3802 36.5368C43.5107 36.5138 43.6429 36.5138 43.7717 36.5368C43.8352 36.5501 43.8986 36.5682 43.9586 36.5913C44.0185 36.6144 44.0766 36.6441 44.1296 36.6771C44.186 36.7117 44.2353 36.7514 44.2811 36.7942C44.327 36.8371 44.3694 36.885 44.4063 36.9362C44.4434 36.9856 44.4734 37.04 44.4998 37.0962C44.5227 37.1523 44.5438 37.2117 44.5544 37.2727C44.5685 37.3321 44.5756 37.3931 44.5756 37.4525C44.5756 37.7 44.4681 37.9409 44.2811 38.1157C44.2353 38.1587 44.186 38.1966 44.1296 38.2312C44.0766 38.2642 44.0185 38.2939 43.9586 38.317C43.8986 38.3418 43.8352 38.3583 43.7717 38.3715C43.7064 38.383 43.6412 38.388 43.5759 38.388Z" fill="#EFF1FF"/>
</svg>
