<svg width="76" height="75" viewBox="0 0 76 75" fill="none" xmlns="http://www.w3.org/2000/svg">
<mask id="mask0_93_14627" style="mask-type:luminance" maskUnits="userSpaceOnUse" x="27" y="0" width="23" height="23">
<path d="M27.0645 0.429688H49.5977V22.5254H27.0645V0.429688Z" fill="white"/>
</mask>
<g mask="url(#mask0_93_14627)">
<path d="M30.6179 19.2206L30.6758 19.2784C32.645 21.2476 35.366 22.4635 38.3776 22.4635C41.3891 22.4635 44.1115 21.2476 46.0807 19.2784L46.1385 19.2206L46.1964 19.1627C48.1654 17.1935 49.3814 14.4712 49.3814 11.4596C49.3814 8.44808 48.1654 5.72696 46.1964 3.75781L46.1385 3.69997L46.0807 3.64212C44.1115 1.67298 41.3891 0.457031 38.3776 0.457031C35.366 0.457031 32.645 1.67298 30.6758 3.64212L30.6179 3.69997L30.5601 3.75781C28.5909 5.72696 27.375 8.44808 27.375 11.4596C27.375 14.4712 28.5909 17.1935 30.5601 19.1627C30.5601 19.1627 30.5601 19.2206 30.6179 19.2206ZM30.8493 10.3016H29.7491C29.9805 8.79634 30.5601 7.34781 31.429 6.1897L32.1809 6.94291C32.4136 7.17428 32.7028 7.28996 32.992 7.28996C33.2812 7.28996 33.5717 7.17428 33.803 6.94291C34.2658 6.48017 34.2658 5.7848 33.803 5.32081L33.0498 4.56887C34.2079 3.69997 35.5987 3.06245 37.1617 2.88892V3.93134C37.1617 4.56886 37.6835 5.08944 38.3197 5.08944C38.9572 5.08944 39.4778 4.56886 39.4778 3.93134V2.83108C40.9842 3.06245 42.4315 3.64212 43.5896 4.51102L42.8377 5.26297C42.3737 5.72696 42.3737 6.42107 42.8377 6.88506C43.0691 7.11643 43.3582 7.23212 43.6475 7.23212C43.938 7.23212 44.2272 7.11643 44.4586 6.88506L45.2117 6.13186C46.0807 7.28996 46.7169 8.68066 46.8904 10.2437H45.9071C45.2696 10.2437 44.7478 10.7655 44.7478 11.4018C44.7478 12.0393 45.2696 12.5599 45.9071 12.5599H47.0074C46.7747 14.0663 46.1964 15.5136 45.3274 16.6718L44.5742 15.9198C44.1115 15.4558 43.4161 15.4558 42.9534 15.9198C42.4894 16.3825 42.4894 17.0779 42.9534 17.5406L43.7053 18.2939C42.5472 19.1627 41.1578 19.799 39.5935 19.9725V18.9892C39.5935 18.3516 39.0729 17.8298 38.4354 17.8298C37.7991 17.8298 37.2774 18.3516 37.2774 18.9892V20.0894C35.7722 19.8568 34.3236 19.2784 33.1655 18.4095L33.9187 17.6563C34.3815 17.1936 34.3815 16.4982 33.9187 16.0355C33.456 15.5714 32.7606 15.5714 32.2966 16.0355L31.5446 16.7874C30.6758 15.6293 30.0383 14.2398 29.8648 12.6756H30.8493C31.4868 12.6756 32.0074 12.155 32.0074 11.5175C32.0074 10.8812 31.4868 10.3016 30.8493 10.3016Z" fill="#473DC6"/>
</g>
<path d="M35.4803 12.6147H38.3762C39.0138 12.6147 39.5343 12.0941 39.5343 11.4566V7.98233C39.5343 7.34479 39.0138 6.82422 38.3762 6.82422C37.7399 6.82422 37.2181 7.34479 37.2181 7.98233V10.2985H35.4803C34.8441 10.2985 34.3223 10.8204 34.3223 11.4566C34.3223 12.0941 34.8441 12.6147 35.4803 12.6147Z" fill="#473DC6"/>
<mask id="mask1_93_14627" style="mask-type:luminance" maskUnits="userSpaceOnUse" x="1" y="25" width="27" height="27">
<path d="M1.31445 25.1016H27.0655V51.1759H1.31445V25.1016Z" fill="white"/>
</mask>
<g mask="url(#mask1_93_14627)">
<path d="M2.93529 41.5155C3.16666 42.2109 3.45713 42.9062 3.80418 43.6003C3.45713 44.5849 3.63065 45.743 4.4417 46.4962L5.71548 47.77C6.23606 48.2918 6.93142 48.5811 7.68462 48.5811C8.03167 48.5811 8.32088 48.5232 8.66919 48.4075C9.30548 48.7546 10.0008 49.0438 10.7541 49.2764C11.2167 50.2032 12.1435 50.8972 13.2437 50.8972H15.0394C16.1396 50.8972 17.1242 50.261 17.5291 49.2764C18.2245 49.0438 18.9198 48.7546 19.6139 48.4075C19.9044 48.5232 20.2514 48.5811 20.5985 48.5811C21.3517 48.5811 22.0471 48.2918 22.5677 47.77L23.8414 46.4962C24.6524 45.6852 24.826 44.5849 24.4789 43.6003C24.826 42.9641 25.1165 42.2687 25.3478 41.5155C26.2745 41.0528 26.9687 40.126 26.9687 39.0258V37.2301C26.9687 36.1299 26.3324 35.1453 25.3478 34.7404C25.1165 34.0451 24.826 33.3497 24.4789 32.6556C24.5946 32.3651 24.6524 32.018 24.6524 31.671C24.6524 30.9178 24.3632 30.2224 23.8414 29.7019L22.5677 28.428C22.0471 27.9062 21.3517 27.617 20.5985 27.617C20.2514 27.617 19.9622 27.6749 19.6139 27.7906C18.9776 27.4435 18.2823 27.153 17.5291 26.9216C17.0663 25.9949 16.1396 25.3008 15.0394 25.3008H13.2437C12.1435 25.3008 11.1589 25.9371 10.7541 26.9216C10.0586 27.153 9.36332 27.4435 8.66919 27.7906C8.26304 27.7327 7.97383 27.6749 7.62678 27.6749C6.87358 27.6749 6.17821 27.9641 5.65764 28.4859L4.38385 29.7597C3.91986 30.2224 3.63065 30.9178 3.63065 31.671C3.63065 32.018 3.68849 32.3073 3.80418 32.6556C3.45713 33.2918 3.16666 33.9872 2.93529 34.7404C1.95072 35.1453 1.31445 36.0721 1.31445 37.2301V39.0258C1.31445 40.126 1.95072 41.0528 2.93529 41.5155ZM3.63065 37.2301C3.63065 36.9988 3.80418 36.7674 4.09338 36.7674H4.84659C5.07796 35.2031 5.71548 33.7558 6.58436 32.5399L6.06253 32.018C5.88901 31.8445 5.88901 31.5553 6.06253 31.3806L7.33631 30.1067C7.39541 30.0489 7.5111 29.9911 7.62678 29.9911C7.74247 29.9911 7.85815 30.0489 7.91599 30.1067L8.43782 30.6286C9.65374 29.7019 11.101 29.1222 12.6653 28.8908V28.1376C12.6653 27.9062 12.8388 27.6749 13.1281 27.6749H14.9237C15.1551 27.6749 15.3864 27.8484 15.3864 28.1376V28.8908C16.9506 29.1222 18.3979 29.7597 19.6139 30.6286L20.1357 30.1067C20.1936 30.0489 20.3093 29.9911 20.4249 29.9911C20.5406 29.9911 20.6563 30.0489 20.7142 30.1067L21.9892 31.3806C22.1627 31.5553 22.1627 31.8445 21.9892 32.018L21.4673 32.5399C22.3941 33.7558 22.9725 35.2031 23.2051 36.7674H23.9571C24.1897 36.7674 24.4211 36.9409 24.4211 37.2301V39.0258C24.4211 39.2572 24.2475 39.4885 23.9571 39.4885H23.2051C22.9725 41.0528 22.3363 42.5001 21.4673 43.716L21.9892 44.2379C22.1627 44.4114 22.1627 44.7006 21.9892 44.8741L20.7142 46.1491C20.7142 46.207 20.5985 46.207 20.4828 46.207C20.3671 46.207 20.2514 46.1491 20.1936 46.0913L19.6718 45.5695C18.4558 46.4962 17.0085 47.0759 15.4443 47.3073V48.0592C15.4443 48.2918 15.2708 48.5232 14.9815 48.5232H13.1859C12.9545 48.5232 12.7231 48.3497 12.7231 48.0592V47.3073C11.1589 47.0759 9.71158 46.4384 8.49566 45.5695L7.97383 46.0913C7.85815 46.207 7.74247 46.207 7.62678 46.207C7.5111 46.207 7.39541 46.1491 7.33631 46.0913L6.06253 44.8163C5.88901 44.6427 5.88901 44.3536 6.06253 44.1801L6.58436 43.6582C5.65764 42.4423 5.07796 40.995 4.84659 39.4307H4.09338C3.80418 39.4307 3.63065 39.2572 3.63065 38.9679V37.2301Z" fill="#473DC6"/>
</g>
<path d="M14.0534 45.0462C17.8759 45.0462 21.0032 41.919 21.0032 38.0963C21.0032 34.2737 17.8759 31.1465 14.0534 31.1465C10.2308 31.1465 7.10352 34.2737 7.10352 38.0963C7.10352 41.919 10.2308 45.0462 14.0534 45.0462ZM14.0534 33.4626C16.6009 33.4626 18.6858 35.5475 18.6858 38.0963C18.6858 40.6439 16.6009 42.7288 14.0534 42.7288C11.5045 42.7288 9.41969 40.6439 9.41969 38.0963C9.41969 35.5475 11.5045 33.4626 14.0534 33.4626Z" fill="#473DC6"/>
<path d="M61.0182 22.463H63.7405C60.8446 17.6558 56.675 13.7175 51.6364 11.1699C51.6364 11.2856 51.6364 11.3435 51.6364 11.4591C51.6364 12.2124 51.5786 12.9656 51.4629 13.6597C55.3434 15.8024 58.6441 18.814 61.0182 22.463Z" fill="#473DC6"/>
<mask id="mask2_93_14627" style="mask-type:luminance" maskUnits="userSpaceOnUse" x="52" y="24" width="24" height="28">
<path d="M52.1719 24.7773H75.3942V51.4954H52.1719V24.7773Z" fill="white"/>
</mask>
<g mask="url(#mask2_93_14627)">
<path d="M71.9675 27.0974H69.5922C69.303 25.7658 68.1449 24.7812 66.7554 24.7812H60.9637C59.5742 24.7812 58.4162 25.7658 58.1257 27.0974H55.7516C53.8403 27.0974 52.2773 28.6617 52.2773 30.573V47.9458C52.2773 49.8571 53.8403 51.4214 55.7516 51.4214H71.9675C73.8775 51.4214 75.4418 49.8571 75.4418 47.9458V30.573C75.4418 28.6617 73.8775 27.0974 71.9675 27.0974ZM60.384 27.6771C60.384 27.3301 60.6166 27.0974 60.9637 27.0974H66.7554C67.1025 27.0974 67.3339 27.3301 67.3339 27.6771V28.8352C67.3339 29.1823 67.1025 29.4149 66.7554 29.4149H60.9637C60.6166 29.4149 60.384 29.1823 60.384 28.8352V27.6771ZM73.1256 47.9458C73.1256 48.5833 72.6038 49.1039 71.9675 49.1039H55.7516C55.1141 49.1039 54.5935 48.5833 54.5935 47.9458V30.573C54.5935 29.9354 55.1141 29.4149 55.7516 29.4149H58.1257C58.4162 30.7465 59.5742 31.7311 60.9637 31.7311H66.7554C68.1449 31.7311 69.303 30.7465 69.5922 29.4149H71.9675C72.6038 29.4149 73.1256 29.9354 73.1256 30.573V47.9458Z" fill="#473DC6"/>
</g>
<path d="M68.4886 34.043H59.2226C58.5863 34.043 58.0645 34.5648 58.0645 35.201C58.0645 35.8386 58.5863 36.3591 59.2226 36.3591H68.4886C69.1262 36.3591 69.6468 35.8386 69.6468 35.201C69.6468 34.5648 69.1262 34.043 68.4886 34.043Z" fill="#473DC6"/>
<path d="M68.4886 38.6738H59.2226C58.5863 38.6738 58.0645 39.1957 58.0645 39.8332C58.0645 40.4695 58.5863 40.9913 59.2226 40.9913H68.4886C69.1262 40.9913 69.6468 40.4695 69.6468 39.8332C69.6468 39.1957 69.1262 38.6738 68.4886 38.6738Z" fill="#473DC6"/>
<path d="M68.4886 43.3086H59.2226C58.5863 43.3086 58.0645 43.8292 58.0645 44.4667C58.0645 45.1042 58.5863 45.6248 59.2226 45.6248H68.4886C69.1262 45.6248 69.6468 45.1042 69.6468 44.4667C69.6468 43.8292 69.1262 43.3086 68.4886 43.3086Z" fill="#473DC6"/>
<path d="M14.9217 23.0414C15.0374 23.0414 15.1531 23.0414 15.2688 23.0414C17.7006 19.1622 21.1184 15.9193 25.1723 13.6597C25.1145 12.9656 25.0554 12.2124 25.0554 11.4591C25.0554 11.3435 25.0554 11.2856 25.0554 11.1699C19.8433 13.8345 15.5001 18.0041 12.6055 23.0993C12.779 23.0993 12.9525 23.0414 13.1261 23.0414H14.9217Z" fill="#473DC6"/>
<mask id="mask3_93_14627" style="mask-type:luminance" maskUnits="userSpaceOnUse" x="13" y="30" width="51" height="45">
<path d="M13.2188 30.5664H63.1125V74.504H13.2188V30.5664Z" fill="white"/>
</mask>
<g mask="url(#mask3_93_14627)">
<path d="M63.0462 53.7304H60.266C58.4139 56.2779 56.0965 58.4205 53.4333 60.2161C51.8113 59.5207 50.1326 58.7689 48.8576 58.247C48.1057 57.8999 47.526 57.6686 47.1211 57.495L46.1366 54.3088C48.5106 51.2985 49.9578 47.0712 49.9578 43.1908C49.9578 36.2411 45.0364 30.5664 38.9556 30.5664C32.8748 30.5664 27.952 36.2411 27.952 43.1908C27.952 47.0712 29.4006 51.2985 31.7746 54.3088L30.79 57.436C30.443 57.6107 29.8055 57.8421 29.0523 58.1892C27.6051 58.8267 25.6359 59.6955 23.7825 60.4475C20.7132 58.4784 18.05 55.9887 16.0231 52.9772C15.6748 53.035 15.3277 53.0929 14.9228 53.0929H13.3008C15.3856 56.3936 18.05 59.2315 21.235 61.4899C19.8443 62.0696 18.802 62.5322 18.6284 62.5901C18.2814 62.707 17.9922 62.9962 17.9343 63.3433L15.2121 73.014C15.0964 73.3623 15.2121 73.7672 15.3856 74.0564C15.5591 74.3469 15.9652 74.5204 16.3123 74.5204H61.482C61.8302 74.5204 62.1773 74.3469 62.4087 74.0564C62.6413 73.7672 62.6992 73.4201 62.5835 73.014L59.8612 63.3433C59.7455 62.9962 59.5141 62.707 59.1658 62.5901C58.9923 62.5322 57.6029 61.9539 55.8651 61.1428C58.7031 59.1737 61.1349 56.6262 63.0462 53.7304ZM30.2682 43.1908C30.2682 37.5149 34.1485 32.8826 38.9556 32.8826C43.7614 32.8826 47.6417 37.5149 47.6417 43.1908C47.6417 48.8655 43.7614 56.0465 38.9556 56.0465C34.1485 56.0465 30.2682 48.9233 30.2682 43.1908ZM57.8342 64.617L59.9769 72.2621H17.8765L20.0191 64.617C21.0615 64.1543 23.609 63.1119 29.9212 60.3318C32.2373 59.3472 32.2373 59.2894 32.4121 59.2315C32.5856 59.058 32.7591 58.8845 32.817 58.6532L33.5701 56.22C35.1331 57.5529 36.9865 58.3627 38.8978 58.3627C40.809 58.3627 42.6611 57.5529 44.2253 56.22L44.9786 58.6532C45.0364 58.8845 45.2099 59.1158 45.3834 59.2315C45.4991 59.3472 45.5569 59.3472 47.8153 60.3318C54.2443 63.0541 56.7919 64.1543 57.8342 64.617Z" fill="#473DC6"/>
</g>
</svg>
