<svg width="28" height="27" viewBox="0 0 28 27" fill="none" xmlns="http://www.w3.org/2000/svg">
<mask id="mask0_93_14700" style="mask-type:alpha" maskUnits="userSpaceOnUse" x="0" y="0" width="28" height="27">
<g clip-path="url(#clip0_93_14700)">
<path d="M18.7238 10.0956C18.8719 10.2437 18.9636 10.4484 18.9636 10.6743C18.9636 10.9003 18.8719 11.1057 18.7238 11.2531L12.9935 16.9833C12.8454 17.1315 12.6407 17.2231 12.4148 17.2231C12.1889 17.2231 11.9834 17.1315 11.836 16.9833L9.38023 14.5275C9.23206 14.3793 9.14038 14.1747 9.14038 13.9487C9.14038 13.496 9.50712 13.1293 9.9598 13.1293C10.1857 13.1293 10.3904 13.221 10.5386 13.3692L12.4156 15.247L17.5671 10.0947C17.7153 9.94658 17.9199 9.85489 18.1458 9.85489C18.3718 9.85489 18.5764 9.94658 18.7246 10.0947L18.7238 10.0956ZM24.6938 13.1301C24.6938 19.0077 19.9296 23.772 14.052 23.772C8.17443 23.772 3.41016 19.0077 3.41016 13.1301C3.41016 7.25255 8.17443 2.48828 14.052 2.48828C19.9271 2.49483 24.6873 7.25501 24.6938 13.1293V13.1301ZM23.0566 13.1301C23.0566 8.15711 19.025 4.12549 14.052 4.12549C9.07899 4.12549 5.04736 8.15711 5.04736 13.1301C5.04736 18.1031 9.07899 22.1348 14.052 22.1348C19.0226 22.129 23.0509 18.0999 23.0566 13.1301Z" fill="black"/>
</g>
</mask>
<g mask="url(#mask0_93_14700)">
<rect x="0.955078" y="0.0332031" width="26.1953" height="26.1953" fill="#B500BA"/>
</g>
<defs>
<clipPath id="clip0_93_14700">
<rect width="26.1953" height="26.1953" fill="white" transform="translate(0.955078 0.0332031)"/>
</clipPath>
</defs>
</svg>
