<svg width="53" height="53" viewBox="0 0 53 53" fill="none" xmlns="http://www.w3.org/2000/svg">
<g clip-path="url(#clip0_93_1724)">
<path d="M42.7176 33.4426V5.37209C42.7176 3.2562 40.9963 1.53488 38.8804 1.53488H32.7345C32.6097 0.668594 31.8645 0 30.9643 0H22.2148C21.7909 0 21.4474 0.343609 21.4474 0.767441C21.4474 1.19127 21.7909 1.53488 22.2148 1.53488H30.9643C31.1054 1.53488 31.2201 1.64969 31.2201 1.7907V3.8372C31.2201 5.67088 29.7283 7.16278 27.8945 7.16278H19.6475C17.8137 7.16278 16.3219 5.67088 16.3219 3.8372V1.7907C16.3219 1.64969 16.4366 1.53488 16.5777 1.53488H18.6335C19.0574 1.53488 19.4009 1.19127 19.4009 0.767441C19.4009 0.343609 19.0574 0 18.6335 0H16.5777C15.6775 0 14.9322 0.668594 14.8075 1.53488H7.12675C5.01087 1.53488 3.28955 3.2562 3.28955 5.37209V48.5534C3.28955 50.6693 5.01087 52.3906 7.12675 52.3906H38.8804C39.0689 52.3906 39.2573 52.3758 39.4425 52.3481C39.6063 52.3235 39.773 52.3746 39.9394 52.3815C42.3981 52.4841 44.8343 51.6159 46.6659 50.0163C48.687 48.251 49.9662 45.6564 49.9662 42.7683C49.9663 38.2815 46.8793 34.5024 42.7176 33.4426ZM16.1077 7.16278C16.9948 8.10653 18.2531 8.69766 19.6475 8.69766H27.8945C29.2889 8.69766 30.5472 8.10653 31.4344 7.16278H37.0898V30.6864C37.0898 31.1102 37.4333 31.4538 37.8572 31.4538C38.2812 31.4538 38.6247 31.1102 38.6247 30.6864V6.80464C38.6247 6.1558 38.0968 5.6279 37.4479 5.6279H32.4118C32.6324 5.0733 32.7551 4.46947 32.7551 3.8372V3.06976H38.8805C40.1499 3.06976 41.1828 4.10253 41.1828 5.37209V33.1831C40.9063 33.1592 40.6267 33.1462 40.3442 33.1462C35.0384 33.1462 30.7219 37.4627 30.7219 42.7685C30.7219 44.1927 31.0333 45.5455 31.591 46.7628H8.91745V7.16278H16.1077ZM7.12675 50.8557C5.85731 50.8557 4.82443 49.823 4.82443 48.5534V5.37209C4.82443 4.10253 5.85731 3.06976 7.12675 3.06976H14.787V3.8372C14.787 4.46947 14.9097 5.0733 15.1303 5.6279H8.55931C7.91047 5.6279 7.38257 6.1558 7.38257 6.80464V47.1209C7.38257 47.7697 7.91047 48.2976 8.55931 48.2976H32.4736C33.1867 49.3096 34.0851 50.1969 35.131 50.8525C35.1326 50.8536 7.12675 50.8557 7.12675 50.8557ZM40.3441 50.8557C38.6116 50.8557 36.9176 50.2946 35.5299 49.2624C36.5663 47.6096 38.3608 46.6056 40.3441 46.6056C42.3274 46.6056 44.1218 47.6096 45.1582 49.2624C43.7733 50.2948 42.0685 50.8557 40.3441 50.8557ZM46.3112 48.2209C44.9769 46.2554 42.7721 45.0706 40.3441 45.0706C37.916 45.0706 35.7112 46.2554 34.3769 48.2209C33.0609 46.7819 32.2567 44.8674 32.2567 42.7682C32.2567 38.3088 35.8846 34.6809 40.3441 34.6809C44.8035 34.6809 48.4314 38.3088 48.4314 42.7682C48.4314 44.8675 47.6272 46.782 46.3112 48.2209ZM17.6315 20.8232H20.7013V23.893C20.7013 24.6547 21.3209 25.2744 22.0826 25.2744H23.9245C24.6862 25.2744 25.3059 24.6547 25.3059 23.893V20.8232H28.3757C29.1374 20.8232 29.757 20.2035 29.757 19.4418V17.6C29.757 16.8383 29.1374 16.2186 28.3757 16.2186H25.3059V13.1488C25.3059 12.3871 24.6862 11.7674 23.9245 11.7674H22.0826C21.3209 11.7674 20.7013 12.3871 20.7013 13.1488V16.2186H17.6315C16.8698 16.2186 16.2501 16.8383 16.2501 17.6V19.4418C16.2501 20.2035 16.8698 20.8232 17.6315 20.8232ZM17.785 17.7535H21.1617C21.7542 17.7535 22.2361 17.2715 22.2361 16.679V13.3023H23.771V16.679C23.771 17.2715 24.253 17.7535 24.8454 17.7535H28.2222V19.2883H24.8454C24.253 19.2883 23.771 19.7703 23.771 20.3628V23.7395H22.2361V20.3628C22.2361 19.7703 21.7542 19.2883 21.1617 19.2883H17.785V17.7535ZM13.0285 34.4837H31.5477C31.9717 34.4837 32.3152 34.1401 32.3152 33.7162C32.3152 33.2924 31.9717 32.9488 31.5477 32.9488H13.0285C12.6045 32.9488 12.261 33.2924 12.261 33.7162C12.261 34.1401 12.6045 34.4837 13.0285 34.4837ZM13.0285 29.879H33.2527C33.6766 29.879 34.0201 29.5354 34.0201 29.1116C34.0201 28.6878 33.6766 28.3441 33.2527 28.3441H13.0285C12.6045 28.3441 12.261 28.6878 12.261 29.1116C12.261 29.5354 12.6045 29.879 13.0285 29.879ZM40.3441 36.4977C38.4037 36.4977 36.825 38.0764 36.825 40.0168C36.825 41.9572 38.4037 43.5359 40.3441 43.5359C42.2844 43.5359 43.8631 41.9572 43.8631 40.0168C43.8631 38.0764 42.2844 36.4977 40.3441 36.4977ZM40.3441 42.0009C39.25 42.0009 38.3599 41.1108 38.3599 40.0167C38.3599 38.9227 39.2499 38.0325 40.3441 38.0325C41.4382 38.0325 42.3282 38.9227 42.3282 40.0167C42.3282 41.1108 41.4381 42.0009 40.3441 42.0009ZM13.0285 43.693H27.1132C27.5371 43.693 27.8806 43.3494 27.8806 42.9255C27.8806 42.5017 27.5371 42.1581 27.1132 42.1581H13.0285C12.6045 42.1581 12.261 42.5017 12.261 42.9255C12.261 43.3494 12.6045 43.693 13.0285 43.693ZM13.0285 39.0883H28.648C29.072 39.0883 29.4155 38.7447 29.4155 38.3209C29.4155 37.897 29.072 37.5534 28.648 37.5534H13.0285C12.6045 37.5534 12.261 37.897 12.261 38.3209C12.261 38.7447 12.6045 39.0883 13.0285 39.0883Z" fill="#4C46C7"/>
</g>
<defs>
<clipPath id="clip0_93_1724">
<rect width="52.3906" height="52.3906" fill="white" transform="translate(0.432617)"/>
</clipPath>
</defs>
</svg>
