<svg width="74" height="83" viewBox="0 0 74 83" fill="none" xmlns="http://www.w3.org/2000/svg">
<mask id="mask0_93_14887" style="mask-type:luminance" maskUnits="userSpaceOnUse" x="0" y="0" width="51" height="42">
<path d="M0.962891 0.351562H50.5189V41.7013H0.962891V0.351562Z" fill="white"/>
</mask>
<g mask="url(#mask0_93_14887)">
<path d="M12.0628 41.5207H9.37202C9.37202 26.6528 21.8639 14.5555 37.2184 14.5555H38.5622V19.4677L46.4741 11.8056L38.5622 4.14364V9.05585H37.2184C18.7319 9.05585 3.69302 23.6197 3.69302 41.5207H1.00391C1.00391 22.6193 16.5237 7.16236 35.8731 6.4757V2.3974C35.8731 1.63551 36.3424 0.953658 37.0697 0.65915C37.8052 0.367841 38.6349 0.527901 39.1902 1.0673L50.2789 11.8056L39.1902 22.544C38.6349 23.0835 37.8052 23.2451 37.0763 22.9538C36.3425 22.6577 35.8731 21.9759 35.8731 21.2139V17.1949C22.6242 17.8752 12.0628 28.5254 12.0628 41.5207Z" fill="#EFF1FF"/>
</g>
<mask id="mask1_93_14887" style="mask-type:luminance" maskUnits="userSpaceOnUse" x="23" y="41" width="51" height="42">
<path d="M23.8633 41.293H73.5994V82.6733H23.8633V41.293Z" fill="white"/>
</mask>
<g mask="url(#mask1_93_14887)">
<path d="M36.6167 82.5309C36.1126 82.5309 35.6167 82.3404 35.2449 81.978L24.1562 71.24L35.2449 60.5033C35.8036 59.9607 36.6349 59.8022 37.3638 60.0951C38.0894 60.3848 38.5621 61.0667 38.5621 61.8318V65.8525C51.8093 65.1722 62.3723 54.5202 62.3723 41.5234H65.0614C65.0614 56.3945 52.5712 68.4902 37.2167 68.4902H35.8713V63.5796L27.9593 71.24L35.8713 78.9021V73.9899H37.2167C55.7016 73.9899 70.7421 59.4261 70.7421 41.5251H73.4312C73.4312 60.4265 57.9114 75.885 38.5621 76.5701V80.6483C38.5621 81.4099 38.0927 82.0934 37.3638 82.3864C37.1225 82.4824 36.8679 82.5309 36.6167 82.5309Z" fill="#EFF1FF"/>
</g>
<path d="M37.2167 56.4321C28.7296 56.4321 21.8242 49.7465 21.8242 41.5258C21.8242 33.3084 28.7296 26.6211 37.2167 26.6211C45.7039 26.6211 52.6093 33.3084 52.6093 41.5258C52.6093 49.7465 45.7039 56.4321 37.2167 56.4321ZM37.2167 29.2269C30.2122 29.2269 24.5149 34.7441 24.5149 41.5258C24.5149 48.3107 30.2122 53.828 37.2167 53.828C44.2213 53.828 49.9202 48.3107 49.9202 41.5258C49.9202 34.7441 44.2213 29.2269 37.2167 29.2269Z" fill="#EFF1FF"/>
<path d="M35.7711 47.1193L29.9648 41.4965L31.8672 39.6541L35.7711 43.4348L42.5691 36.8516L44.4699 38.6922L35.7711 47.1193Z" fill="#EFF1FF"/>
<path d="M20.6765 68.2552C19.779 67.7333 18.8948 67.162 18.0518 66.5554L19.8335 64.2313C20.5988 64.7803 21.4004 65.3005 22.2152 65.7742L20.6765 68.2552ZM15.6123 64.6138C14.8355 63.932 14.0835 63.2053 13.3794 62.453L15.5941 60.5067C16.2338 61.1902 16.9147 61.8496 17.6204 62.4706L15.6123 64.6138ZM11.3745 60.0922C10.7498 59.2758 10.158 58.4212 9.61762 57.552L12.1795 56.0603C12.6687 56.8493 13.2059 57.624 13.7744 58.3651L11.3745 60.0922ZM8.12511 54.8566C7.67555 53.9379 7.26896 52.9871 6.91526 52.0332L9.72997 51.0568C10.049 51.9212 10.4192 52.7838 10.8258 53.6161L8.12511 54.8566ZM5.99796 49.1057C5.74342 48.1182 5.53682 47.1081 5.38477 46.1046L8.34162 45.6836C8.48046 46.5927 8.66723 47.5083 8.89862 48.403L5.99796 49.1057Z" fill="#EFF1FF"/>
<path d="M66.0977 37.3622C65.9589 36.4499 65.7704 35.5359 65.5406 34.6444L68.4397 33.9401C68.6942 34.9261 68.9008 35.9344 69.0545 36.9412L66.0977 37.3622ZM64.7093 31.989C64.387 31.1199 64.0185 30.2604 63.6119 29.4297L66.3125 28.1892C66.7604 29.1047 67.167 30.0539 67.5224 31.0126L64.7093 31.989ZM62.2582 26.9856C61.7673 26.1948 61.2302 25.4201 60.6632 24.6807L63.0631 22.9536C63.6879 23.77 64.2795 24.6247 64.82 25.4954L62.2582 26.9856ZM58.8435 22.5359C58.2055 21.8556 57.5246 21.1978 56.8172 20.5768L58.8237 18.432C59.6038 19.1154 60.3558 19.8421 61.0583 20.5927L58.8435 22.5359ZM54.6024 18.8146C53.8388 18.2655 53.0372 17.7469 52.2207 17.2716L53.7595 14.7891C54.6586 15.3124 55.5412 15.8854 56.3841 16.4905L54.6024 18.8146Z" fill="#EFF1FF"/>
</svg>
