<svg width="63" height="75" viewBox="0 0 63 75" fill="none" xmlns="http://www.w3.org/2000/svg">
<path d="M17.9001 17.3366H25.9176C26.4432 17.3366 26.8703 16.9272 26.8703 16.4231V15.1114C26.8703 13.694 26.1888 12.3698 25.0856 11.485C25.8656 10.7184 26.3471 9.67053 26.3471 8.51692C26.3471 6.1698 24.3561 4.262 21.9082 4.262C19.4602 4.262 17.4692 6.1698 17.4692 8.51692C17.4692 9.67053 17.9508 10.7172 18.7295 11.4837C17.6262 12.3686 16.9461 13.6927 16.9461 15.1089V16.4219C16.9474 16.9272 17.3732 17.3366 17.9001 17.3366ZM24.9635 15.5097H18.8502V15.1114C18.8502 14.0337 19.494 13.0406 20.4792 12.5478C20.927 12.6934 21.4085 12.7743 21.9069 12.7743C22.4053 12.7743 22.8856 12.6934 23.3333 12.5478C24.3198 13.0419 24.9623 14.0337 24.9623 15.1114V15.5097H24.9635ZM21.9082 6.08766C23.3048 6.08766 24.4418 7.17783 24.4418 8.51692C24.4418 9.85721 23.3048 10.9461 21.9082 10.9461C20.5116 10.9461 19.3746 9.85721 19.3746 8.51692C19.3746 7.17783 20.5116 6.08766 21.9082 6.08766ZM52.471 31.0458C51.9649 30.5904 51.3042 30.3489 50.6059 30.3713C49.9089 30.3925 49.2651 30.6713 48.7888 31.1554L45.0507 34.9697L44.1836 34.1882C43.6774 33.7339 43.0155 33.4925 42.3185 33.5136C41.6215 33.5361 40.9764 33.8136 40.5 34.2977C39.5175 35.3008 39.5681 36.8862 40.6143 37.8283L43.3802 40.3197C43.8812 40.7703 44.5211 40.9943 45.161 40.9943C45.8554 40.9943 46.5485 40.7304 47.0612 40.2077L52.5827 34.574C53.0577 34.0886 53.3082 33.4539 53.2862 32.7869C53.268 32.1199 52.9773 31.5001 52.471 31.0458ZM51.1978 33.3245L45.6789 38.9571C45.4141 39.2271 44.9689 39.2408 44.6885 38.9882L41.9226 36.4955C41.6422 36.2428 41.628 35.8172 41.8928 35.5471C42.0199 35.419 42.1925 35.3443 42.3821 35.3381C42.3899 35.3381 42.3977 35.3381 42.4041 35.3381C42.5832 35.3381 42.752 35.4016 42.8818 35.5173L44.4432 36.9236C44.8274 37.2695 45.4297 37.2508 45.7892 36.8837L50.1802 32.4036C50.3074 32.2742 50.4813 32.1995 50.6682 32.1945C50.8525 32.1871 51.033 32.253 51.1679 32.3737C51.3029 32.4957 51.3807 32.6624 51.3859 32.8416C51.3925 33.0258 51.325 33.1963 51.1978 33.3245ZM61.4983 21.4894H51.3003V13.4986L55.8834 8.87657C56.6829 8.07016 57.1021 7.00609 57.0671 5.88107C57.0308 4.74113 56.5323 3.6858 55.6653 2.91297C54.3102 1.70458 52.3426 1.48555 50.7512 2.21979C50.0685 1.1346 48.8303 0.427734 47.4454 0.427734H15.2289C13.1042 0.427734 11.374 2.08539 11.374 4.1251V21.4919H1.17731C0.651636 21.4919 0.224609 21.9013 0.224609 22.4042V61.3591C0.224609 61.8631 0.651636 62.2725 1.17731 62.2725H26.1628C26.2161 64.2039 25.4789 66.0682 23.9226 67.9411H13.7687C13.2431 67.9411 12.816 68.3506 12.816 68.8533V72.878C12.816 73.3821 13.2431 73.7915 13.7687 73.7915H48.9043C49.4299 73.7915 49.857 73.3821 49.857 72.878V68.8521C49.857 68.3481 49.4299 67.9386 48.9043 67.9386H38.7504C37.1954 66.0669 36.4569 64.2027 36.5115 62.2713H61.4983C62.0226 62.2713 62.4497 61.8618 62.4497 61.3578V22.4029C62.4497 21.8989 62.0252 21.4894 61.4983 21.4894ZM46.5459 44.495C41.4787 44.495 37.3551 40.5413 37.3551 35.6828C37.3551 30.8243 41.4787 26.8718 46.5459 26.8718C51.6131 26.8718 55.7354 30.8243 55.7354 35.6828C55.7354 40.5413 51.6131 44.495 46.5459 44.495ZM49.3949 25.4021C48.4851 25.1681 47.5298 25.0437 46.5433 25.0437C45.9138 25.0437 45.2947 25.0972 44.6924 25.1943H36.9839L41.1309 23.6324V23.6312C41.2581 23.5839 41.3749 23.5092 41.4735 23.4109L49.3949 15.4201V25.4021ZM35.9598 20.2586C36.7022 21.1721 37.5783 21.9573 38.5973 22.6256L34.3361 24.2298L35.9598 20.2586ZM49.5961 5.63591C50.0789 5.83627 50.5358 6.08891 50.9654 6.40002L37.8444 19.5654C37.5148 19.207 37.2085 18.825 36.932 18.4143L49.5961 5.63591ZM39.2384 20.8112L52.3283 7.67562C52.6424 8.04646 52.9396 8.45966 53.2187 8.91264L40.5857 21.6575C40.1042 21.4011 39.6564 21.1174 39.2384 20.8112ZM54.3673 4.25204C54.8593 4.6901 55.1397 5.28994 55.1617 5.93832C55.1811 6.53692 54.9696 7.10192 54.5711 7.54122C53.5769 6.07148 52.3763 4.97136 50.9823 4.25204C51.9415 3.42072 53.4211 3.40579 54.3673 4.25204ZM13.2807 4.1251C13.2807 3.09467 14.1542 2.2534 15.2315 2.2534H47.4454C48.2267 2.2534 48.916 2.70141 49.2236 3.36223L44.4146 8.21328H31.1418C30.6174 8.21328 30.1904 8.62271 30.1904 9.12547C30.1904 9.62949 30.6174 10.0389 31.1418 10.0389H42.6053L39.3812 13.292H31.1444C30.6188 13.292 30.1917 13.7015 30.1917 14.2055C30.1917 14.7094 30.6188 15.1189 31.1444 15.1189H37.5719L35.0525 17.6576C34.9643 17.746 34.9032 17.8456 34.8592 17.9539L34.8552 17.9526L33.948 20.1765H17.9001C17.3744 20.1765 16.9474 20.5859 16.9474 21.0899C16.9474 21.594 17.3744 22.0034 17.9001 22.0034H33.2017L31.8985 25.193H17.9001C17.3744 25.193 16.9474 25.6025 16.9474 26.1065C16.9474 26.6105 17.3744 27.0199 17.9001 27.0199H40.1145C38.875 27.8686 37.8223 28.9539 37.0332 30.2096H17.9001C17.3744 30.2096 16.9474 30.619 16.9474 31.123C16.9474 31.627 17.3744 32.0365 17.9001 32.0365H36.1208C35.7379 33.0383 35.5108 34.111 35.4614 35.2261H17.9001C17.3744 35.2261 16.9474 35.6355 16.9474 36.1395C16.9474 36.6436 17.3744 37.053 17.9001 37.053H35.5458C35.6989 38.1805 36.0338 39.2545 36.5257 40.2439H17.9001C17.3744 40.2439 16.9474 40.6533 16.9474 41.1561C16.9474 41.6601 17.3744 42.0695 17.9001 42.0695H37.6809C39.7083 44.6481 42.9259 46.3181 46.5459 46.3181C47.3519 46.3181 48.1372 46.2323 48.8952 46.0755C48.5382 46.4576 48.0204 46.7002 47.4454 46.7002H15.2289C14.1542 46.7002 13.2781 45.8615 13.2781 44.8298V4.1251H13.2807ZM11.3753 23.3163V44.831C11.3753 46.8695 13.1042 48.5284 15.2315 48.5284H47.4454C49.4027 48.5284 51.0238 47.1197 51.2679 45.3051C55.0306 43.6014 57.6408 39.9302 57.6408 35.6816C57.6408 31.4478 55.0449 27.7815 51.3003 26.0728V23.3163H60.5456V54.4982H2.13V23.3163H11.3753ZM47.9516 71.9646H14.7228V69.7655H47.9541V71.9646H47.9516ZM36.4063 67.9386H26.2706C27.5076 66.1031 28.1098 64.2052 28.0696 62.2713H34.6074C34.5658 64.2052 35.1693 66.1031 36.4063 67.9386ZM2.13 60.4444V56.3251H60.5469V60.4444H2.13Z" fill="#473DC6"/>
</svg>
