<svg width="64" height="75" viewBox="0 0 64 75" fill="none" xmlns="http://www.w3.org/2000/svg">
<mask id="mask0_93_14684" style="mask-type:luminance" maskUnits="userSpaceOnUse" x="0" y="0" width="64" height="75">
<path d="M0.896484 0.417969H63.585V74.5045H0.896484V0.417969Z" fill="white"/>
</mask>
<g mask="url(#mask0_93_14684)">
<path d="M28.8968 39.3381L40.8776 26.9327C41.4229 26.3668 42.3081 26.3668 42.8545 26.9327C43.401 27.4973 43.401 28.4141 42.8545 28.9799L29.7626 42.5372C29.4991 42.81 29.1433 42.961 28.7741 42.961C28.7474 42.961 28.7195 42.961 28.6928 42.9584C28.2932 42.9346 27.9241 42.7359 27.6764 42.4114L21.4868 34.2979C21.0084 33.6705 21.1116 32.76 21.7175 32.2633C22.3234 31.7678 23.2027 31.8747 23.6811 32.5022L28.8968 39.3381ZM32.2253 14.9309C42.7695 14.9309 51.349 23.8153 51.349 34.7343C51.349 45.6546 42.7695 54.5389 32.2253 54.5389C21.6799 54.5389 13.1005 45.6546 13.1005 34.7343C13.1005 23.8153 21.6799 14.9309 32.2253 14.9309ZM32.2253 17.827C23.2221 17.827 15.8972 25.4111 15.8972 34.7343C15.8972 44.0575 23.2221 51.6429 32.2253 51.6429C41.2285 51.6429 48.5523 44.0575 48.5523 34.7343C48.5523 25.4111 41.2285 17.827 32.2253 17.827ZM63.5119 10.4014V37.4442C63.5119 41.809 62.4991 46.2041 60.5016 50.5061C58.7116 54.3603 56.1772 58.0574 52.9677 61.4929C47.1643 67.7076 39.5454 72.5704 32.5872 74.5006C32.4682 74.5333 32.3467 74.5497 32.2253 74.5497C32.1039 74.5497 31.9813 74.5333 31.8635 74.5006C24.9052 72.5704 17.2851 67.7076 11.4817 61.4929C8.27341 58.0574 5.73784 54.3603 3.94789 50.5061C1.95027 46.2041 0.9375 41.809 0.9375 37.4442V10.4014C0.9375 9.6469 1.49853 9.01814 2.22472 8.95902C10.8211 8.24973 18.0805 4.06979 22.6562 0.687077C22.893 0.512282 23.1772 0.417969 23.4686 0.417969H40.9808C41.2722 0.417969 41.5564 0.512282 41.7932 0.687077C46.3701 4.06979 53.6295 8.24973 62.2247 8.95902C62.9521 9.01814 63.5119 9.6469 63.5119 10.4014ZM60.7165 11.7142C53.9404 10.8943 46.9991 8.00832 40.5364 3.31402H23.9131C17.4503 8.00832 10.5102 10.8943 3.73416 11.7142V37.4442C3.73416 54.1767 20.4485 68.144 32.2253 71.6009C44.0021 68.144 60.7165 54.1767 60.7165 37.4442V11.7142Z" fill="#473DC6"/>
</g>
</svg>
